%TF.GenerationSoftware,KiCad,Pcbnew,7.0.8*%
%TF.CreationDate,2025-08-29T19:41:29-04:00*%
%TF.ProjectId,Sango,53616e67-6f2e-46b6-9963-61645f706362,rev?*%
%TF.SameCoordinates,Original*%
%TF.FileFunction,Profile,NP*%
%FSLAX46Y46*%
G04 Gerber Fmt 4.6, Leading zero omitted, Abs format (unit mm)*
G04 Created by KiCad (PCBNEW 7.0.8) date 2025-08-29 19:41:29*
%MOMM*%
%LPD*%
G01*
G04 APERTURE LIST*
%TA.AperFunction,Profile*%
%ADD10C,0.100000*%
%TD*%
%TA.AperFunction,Profile*%
%ADD11C,0.120000*%
%TD*%
G04 APERTURE END LIST*
D10*
X320000000Y-285000000D02*
X323000000Y-288000000D01*
X76730000Y-184000000D02*
X76730000Y-194000000D01*
X161940000Y-289000000D02*
X178730000Y-289000000D01*
X225980000Y-247025000D02*
X225980000Y-214605000D01*
X76730000Y-303000000D02*
X380000000Y-303000000D01*
X286720000Y-192000000D02*
X320000000Y-192000000D01*
X76730000Y-292000000D02*
X76730000Y-303000000D01*
X329000000Y-194000000D02*
X323000000Y-188000000D01*
X136730000Y-192000000D02*
X133730000Y-192000000D01*
X161940000Y-285000000D02*
G75*
G03*
X161940000Y-289000000I0J-2000000D01*
G01*
X113940000Y-288000000D02*
X133730000Y-288000000D01*
X225980000Y-256415000D02*
X225980000Y-277000000D01*
X377500000Y-198000000D02*
X375750000Y-198000000D01*
X356890000Y-194000000D02*
G75*
G03*
X356890000Y-198000000I0J-2000000D01*
G01*
X99780000Y-198000000D02*
G75*
G03*
X99780000Y-194000000I0J2000000D01*
G01*
X133730000Y-292000000D02*
X113940000Y-292000000D01*
X127730000Y-198000000D02*
X133730000Y-192000000D01*
X380000000Y-285500000D02*
X380000000Y-212030000D01*
X230750000Y-214605000D02*
G75*
G03*
X225980000Y-214605000I-2385000J0D01*
G01*
X380000000Y-204000000D02*
X380000000Y-200500000D01*
X225980000Y-197000000D02*
G75*
G03*
X220980000Y-192000000I-5000000J0D01*
G01*
X169960000Y-188000000D02*
X133500000Y-188000000D01*
X277720000Y-188000000D02*
X179020000Y-188000000D01*
X225980000Y-277000000D02*
X213855199Y-297992800D01*
X136730000Y-285000000D02*
X133730000Y-288000000D01*
X211402305Y-298594003D02*
G75*
G03*
X213855198Y-297992799I928895J1514603D01*
G01*
X286720000Y-188000000D02*
X323000000Y-188000000D01*
X225980000Y-205215000D02*
X225980000Y-197000000D01*
X351930000Y-288000000D02*
G75*
G03*
X351930000Y-292000000I0J-2000000D01*
G01*
X377500000Y-288000000D02*
X351930000Y-288000000D01*
X351930000Y-292000000D02*
X380000000Y-292000000D01*
X380000000Y-200500000D02*
G75*
G03*
X377500000Y-198000000I-2500000J0D01*
G01*
X230750000Y-256415000D02*
G75*
G03*
X225980000Y-256415000I-2385000J0D01*
G01*
X76730000Y-285500000D02*
G75*
G03*
X79230000Y-288000000I2500000J0D01*
G01*
X79230000Y-198000000D02*
G75*
G03*
X76730000Y-200500000I0J-2500000D01*
G01*
X179020000Y-188000000D02*
G75*
G03*
X179020000Y-192000000I0J-2000000D01*
G01*
X211402304Y-298594004D02*
X195659492Y-289516660D01*
X380000000Y-184000000D02*
X380000000Y-194000000D01*
X320000000Y-289000000D02*
X303910000Y-289000000D01*
X303910000Y-285000000D02*
X320000000Y-285000000D01*
X380000000Y-204000000D02*
X380000000Y-212030000D01*
X278000000Y-289000000D02*
X250000000Y-300000000D01*
X76730000Y-184000000D02*
X380000000Y-184000000D01*
X323000000Y-192000000D02*
X320000000Y-192000000D01*
X380000000Y-302000000D02*
X380000000Y-303000000D01*
X152860000Y-285000000D02*
X136730000Y-285000000D01*
X152860000Y-289000000D02*
G75*
G03*
X152860000Y-285000000I0J2000000D01*
G01*
X104850000Y-292000000D02*
G75*
G03*
X104850000Y-288000000I0J2000000D01*
G01*
X356890000Y-198000000D02*
X375750000Y-198000000D01*
X377500000Y-288000000D02*
G75*
G03*
X380000000Y-285500000I0J2500000D01*
G01*
X242874801Y-297992800D02*
X230750000Y-277000000D01*
X220980000Y-192000000D02*
X179020000Y-192000000D01*
X342820000Y-292000000D02*
G75*
G03*
X342820000Y-288000000I0J2000000D01*
G01*
X342820000Y-292000000D02*
X323000000Y-292000000D01*
X76730000Y-285500000D02*
X76730000Y-212030000D01*
X329000000Y-198000000D02*
X323000000Y-192000000D01*
X347820000Y-198000000D02*
X329000000Y-198000000D01*
X230750000Y-205215000D02*
X230750000Y-197000000D01*
X235750000Y-192000000D02*
X277720000Y-192000000D01*
X380000000Y-302000000D02*
X380000000Y-292000000D01*
X99780000Y-194000000D02*
X76730000Y-194000000D01*
X136730000Y-289000000D02*
X133730000Y-292000000D01*
X286720000Y-188000000D02*
G75*
G03*
X286720000Y-192000000I0J-2000000D01*
G01*
X303910000Y-285000000D02*
G75*
G03*
X303910000Y-289000000I0J-2000000D01*
G01*
X230750000Y-214605000D02*
X230750000Y-247025000D01*
X108890000Y-194000000D02*
X126000000Y-194000000D01*
X169960000Y-192000000D02*
X136730000Y-192000000D01*
X76730000Y-200500000D02*
X76730000Y-212030000D01*
X323000000Y-292000000D02*
X320000000Y-289000000D01*
X136730000Y-289000000D02*
X152860000Y-289000000D01*
X380000000Y-194000000D02*
X356890000Y-194000000D01*
X294850000Y-289000000D02*
G75*
G03*
X294850000Y-285000000I0J2000000D01*
G01*
X278000000Y-285000000D02*
X294850000Y-285000000D01*
X230750000Y-256415000D02*
X230750000Y-277000000D01*
X261070508Y-289516660D02*
X245327696Y-298594004D01*
X195659492Y-289516660D02*
X178730000Y-285000000D01*
X108890000Y-198000000D02*
X127730000Y-198000000D01*
X347820000Y-194000000D02*
X329000000Y-194000000D01*
X207000000Y-300000000D02*
X178730000Y-289000000D01*
X82730000Y-198000000D02*
X79230000Y-198000000D01*
X342820000Y-288000000D02*
X323000000Y-288000000D01*
X277720000Y-192000000D02*
G75*
G03*
X277720000Y-188000000I0J2000000D01*
G01*
X250000000Y-300000000D02*
X207000000Y-300000000D01*
X235750000Y-192000000D02*
G75*
G03*
X230750000Y-197000000I0J-5000000D01*
G01*
X294850000Y-289000000D02*
X278000000Y-289000000D01*
X242874801Y-297992800D02*
G75*
G03*
X245327696Y-298594004I1523999J913400D01*
G01*
X347820000Y-198000000D02*
G75*
G03*
X347820000Y-194000000I0J2000000D01*
G01*
X225980000Y-205215000D02*
G75*
G03*
X230750000Y-205215000I2385000J0D01*
G01*
X99780000Y-198000000D02*
X82730000Y-198000000D01*
X79230000Y-288000000D02*
X104850000Y-288000000D01*
X169960000Y-192000000D02*
G75*
G03*
X169960000Y-188000000I0J2000000D01*
G01*
X113940000Y-288000000D02*
G75*
G03*
X113940000Y-292000000I0J-2000000D01*
G01*
X76730000Y-292000000D02*
X104850000Y-292000000D01*
X108890000Y-194000000D02*
G75*
G03*
X108890000Y-198000000I0J-2000000D01*
G01*
X225980000Y-247025000D02*
G75*
G03*
X230750000Y-247025000I2385000J0D01*
G01*
X133500000Y-188000000D02*
X126000000Y-194000000D01*
X161940000Y-285000000D02*
X178730000Y-285000000D01*
X278000000Y-285000000D02*
X261070508Y-289516660D01*
D11*
%TO.C,D139*%
X144330000Y-251862582D02*
X140930000Y-251862582D01*
X144330000Y-248862582D02*
X144330000Y-251862582D01*
X140930000Y-251862582D02*
X140930000Y-248862582D01*
X140930000Y-248862582D02*
X144330000Y-248862582D01*
%TO.C,D100*%
X159030000Y-229394000D02*
X162430000Y-229394000D01*
X159030000Y-232394000D02*
X159030000Y-229394000D01*
X162430000Y-229394000D02*
X162430000Y-232394000D01*
X162430000Y-232394000D02*
X159030000Y-232394000D01*
%TO.C,D121*%
X140930000Y-231769000D02*
X144330000Y-231769000D01*
X140930000Y-234769000D02*
X140930000Y-231769000D01*
X144330000Y-231769000D02*
X144330000Y-234769000D01*
X144330000Y-234769000D02*
X140930000Y-234769000D01*
%TO.C,D94*%
X370075000Y-239568582D02*
X366675000Y-239568582D01*
X370075000Y-236568582D02*
X370075000Y-239568582D01*
X366675000Y-239568582D02*
X366675000Y-236568582D01*
X366675000Y-236568582D02*
X370075000Y-236568582D01*
%TO.C,D96*%
X333875000Y-239568582D02*
X330475000Y-239568582D01*
X333875000Y-236568582D02*
X333875000Y-239568582D01*
X330475000Y-239568582D02*
X330475000Y-236568582D01*
X330475000Y-236568582D02*
X333875000Y-236568582D01*
%TO.C,D80*%
X294300000Y-212368582D02*
X297700000Y-212368582D01*
X294300000Y-215368582D02*
X294300000Y-212368582D01*
X297700000Y-212368582D02*
X297700000Y-215368582D01*
X297700000Y-215368582D02*
X294300000Y-215368582D01*
%TO.C,D123*%
X240025000Y-241968582D02*
X243425000Y-241968582D01*
X240025000Y-244968582D02*
X240025000Y-241968582D01*
X243425000Y-241968582D02*
X243425000Y-244968582D01*
X243425000Y-244968582D02*
X240025000Y-244968582D01*
%TO.C,D119*%
X86630000Y-202294000D02*
X90030000Y-202294000D01*
X86630000Y-205294000D02*
X86630000Y-202294000D01*
X90030000Y-202294000D02*
X90030000Y-205294000D01*
X90030000Y-205294000D02*
X86630000Y-205294000D01*
%TO.C,D138*%
X162430000Y-249487582D02*
X159030000Y-249487582D01*
X162430000Y-246487582D02*
X162430000Y-249487582D01*
X159030000Y-249487582D02*
X159030000Y-246487582D01*
X159030000Y-246487582D02*
X162430000Y-246487582D01*
%TO.C,D75*%
X333875000Y-205321600D02*
X330475000Y-205321600D01*
X333875000Y-202321600D02*
X333875000Y-205321600D01*
X330475000Y-205321600D02*
X330475000Y-202321600D01*
X330475000Y-202321600D02*
X333875000Y-202321600D01*
%TO.C,D126*%
X294300000Y-246543582D02*
X297700000Y-246543582D01*
X294300000Y-249543582D02*
X294300000Y-246543582D01*
X297700000Y-246543582D02*
X297700000Y-249543582D01*
X297700000Y-249543582D02*
X294300000Y-249543582D01*
%TO.C,D125*%
X276200000Y-248918582D02*
X279600000Y-248918582D01*
X276200000Y-251918582D02*
X276200000Y-248918582D01*
X279600000Y-248918582D02*
X279600000Y-251918582D01*
X279600000Y-251918582D02*
X276200000Y-251918582D01*
%TO.C,D142*%
X104730000Y-270669000D02*
X108130000Y-270669000D01*
X104730000Y-273669000D02*
X104730000Y-270669000D01*
X108130000Y-270669000D02*
X108130000Y-273669000D01*
X108130000Y-273669000D02*
X104730000Y-273669000D01*
%TO.C,D120*%
X180530000Y-217669000D02*
X177130000Y-217669000D01*
X180530000Y-214669000D02*
X180530000Y-217669000D01*
X177130000Y-217669000D02*
X177130000Y-214669000D01*
X177130000Y-214669000D02*
X180530000Y-214669000D01*
%TO.C,D99*%
X162430000Y-215294000D02*
X159030000Y-215294000D01*
X162430000Y-212294000D02*
X162430000Y-215294000D01*
X159030000Y-215294000D02*
X159030000Y-212294000D01*
X159030000Y-212294000D02*
X162430000Y-212294000D01*
%TO.C,D141*%
X86630000Y-270669000D02*
X90030000Y-270669000D01*
X86630000Y-273669000D02*
X86630000Y-270669000D01*
X90030000Y-270669000D02*
X90030000Y-273669000D01*
X90030000Y-273669000D02*
X86630000Y-273669000D01*
%TO.C,D102*%
X122830000Y-202294000D02*
X126230000Y-202294000D01*
X122830000Y-205294000D02*
X122830000Y-202294000D01*
X126230000Y-202294000D02*
X126230000Y-205294000D01*
X126230000Y-205294000D02*
X122830000Y-205294000D01*
%TO.C,D133*%
X268023799Y-273974344D02*
X264739652Y-274854329D01*
X267247342Y-271076567D02*
X268023799Y-273974344D01*
X264739652Y-274854329D02*
X263963195Y-271956552D01*
X263963195Y-271956552D02*
X267247342Y-271076567D01*
%TO.C,D83*%
X348575000Y-219493582D02*
X351975000Y-219493582D01*
X348575000Y-222493582D02*
X348575000Y-219493582D01*
X351975000Y-219493582D02*
X351975000Y-222493582D01*
X351975000Y-222493582D02*
X348575000Y-222493582D01*
%TO.C,D82*%
X330475000Y-219493582D02*
X333875000Y-219493582D01*
X330475000Y-222493582D02*
X330475000Y-219493582D01*
X333875000Y-219493582D02*
X333875000Y-222493582D01*
X333875000Y-222493582D02*
X330475000Y-222493582D01*
%TO.C,D107*%
X126230000Y-222394000D02*
X122830000Y-222394000D01*
X126230000Y-219394000D02*
X126230000Y-222394000D01*
X122830000Y-222394000D02*
X122830000Y-219394000D01*
X122830000Y-219394000D02*
X126230000Y-219394000D01*
%TO.C,D116*%
X198616577Y-220069000D02*
X195216577Y-220069000D01*
X198616577Y-217069000D02*
X198616577Y-220069000D01*
X195216577Y-220069000D02*
X195216577Y-217069000D01*
X195216577Y-217069000D02*
X198616577Y-217069000D01*
%TO.C,D79*%
X261500000Y-202993582D02*
X258100000Y-202993582D01*
X261500000Y-199993582D02*
X261500000Y-202993582D01*
X258100000Y-202993582D02*
X258100000Y-199993582D01*
X258100000Y-199993582D02*
X261500000Y-199993582D01*
%TO.C,D106*%
X140930000Y-197594000D02*
X144330000Y-197594000D01*
X140930000Y-200594000D02*
X140930000Y-197594000D01*
X144330000Y-197594000D02*
X144330000Y-200594000D01*
X144330000Y-200594000D02*
X140930000Y-200594000D01*
%TO.C,D98*%
X104730000Y-202294000D02*
X108130000Y-202294000D01*
X104730000Y-205294000D02*
X104730000Y-202294000D01*
X108130000Y-202294000D02*
X108130000Y-205294000D01*
X108130000Y-205294000D02*
X104730000Y-205294000D01*
%TO.C,D118*%
X195216577Y-199994000D02*
X198616577Y-199994000D01*
X195216577Y-202994000D02*
X195216577Y-199994000D01*
X198616577Y-199994000D02*
X198616577Y-202994000D01*
X198616577Y-202994000D02*
X195216577Y-202994000D01*
%TO.C,D84*%
X366675000Y-219493582D02*
X370075000Y-219493582D01*
X366675000Y-222493582D02*
X366675000Y-219493582D01*
X370075000Y-219493582D02*
X370075000Y-222493582D01*
X370075000Y-222493582D02*
X366675000Y-222493582D01*
%TO.C,D137*%
X180530000Y-251862582D02*
X177130000Y-251862582D01*
X180530000Y-248862582D02*
X180530000Y-251862582D01*
X177130000Y-251862582D02*
X177130000Y-248862582D01*
X177130000Y-248862582D02*
X180530000Y-248862582D01*
%TO.C,D89*%
X240025000Y-224868582D02*
X243425000Y-224868582D01*
X240025000Y-227868582D02*
X240025000Y-224868582D01*
X243425000Y-224868582D02*
X243425000Y-227868582D01*
X243425000Y-227868582D02*
X240025000Y-227868582D01*
%TO.C,D90*%
X258100000Y-217093582D02*
X261500000Y-217093582D01*
X258100000Y-220093582D02*
X258100000Y-217093582D01*
X261500000Y-217093582D02*
X261500000Y-220093582D01*
X261500000Y-220093582D02*
X258100000Y-220093582D01*
%TO.C,D85*%
X370075000Y-205393582D02*
X366675000Y-205393582D01*
X370075000Y-202393582D02*
X370075000Y-205393582D01*
X366675000Y-205393582D02*
X366675000Y-202393582D01*
X366675000Y-202393582D02*
X370075000Y-202393582D01*
%TO.C,D76*%
X315775000Y-200618582D02*
X312375000Y-200618582D01*
X315775000Y-197618582D02*
X315775000Y-200618582D01*
X312375000Y-200618582D02*
X312375000Y-197618582D01*
X312375000Y-197618582D02*
X315775000Y-197618582D01*
%TO.C,D128*%
X330475000Y-253668582D02*
X333875000Y-253668582D01*
X330475000Y-256668582D02*
X330475000Y-253668582D01*
X333875000Y-253668582D02*
X333875000Y-256668582D01*
X333875000Y-256668582D02*
X330475000Y-256668582D01*
%TO.C,D101*%
X108130000Y-256594000D02*
X104730000Y-256594000D01*
X108130000Y-253594000D02*
X108130000Y-256594000D01*
X104730000Y-256594000D02*
X104730000Y-253594000D01*
X104730000Y-253594000D02*
X108130000Y-253594000D01*
%TO.C,D78*%
X279600000Y-200618582D02*
X276200000Y-200618582D01*
X279600000Y-197618582D02*
X279600000Y-200618582D01*
X276200000Y-200618582D02*
X276200000Y-197618582D01*
X276200000Y-197618582D02*
X279600000Y-197618582D01*
%TO.C,D104*%
X177130000Y-231769000D02*
X180530000Y-231769000D01*
X177130000Y-234769000D02*
X177130000Y-231769000D01*
X180530000Y-231769000D02*
X180530000Y-234769000D01*
X180530000Y-234769000D02*
X177130000Y-234769000D01*
%TO.C,D108*%
X195216577Y-234144000D02*
X198616577Y-234144000D01*
X195216577Y-237144000D02*
X195216577Y-234144000D01*
X198616577Y-234144000D02*
X198616577Y-237144000D01*
X198616577Y-237144000D02*
X195216577Y-237144000D01*
%TO.C,D115*%
X90030000Y-222394000D02*
X86630000Y-222394000D01*
X90030000Y-219394000D02*
X90030000Y-222394000D01*
X86630000Y-222394000D02*
X86630000Y-219394000D01*
X86630000Y-219394000D02*
X90030000Y-219394000D01*
%TO.C,D140*%
X126230000Y-256594000D02*
X122830000Y-256594000D01*
X126230000Y-253594000D02*
X126230000Y-256594000D01*
X122830000Y-256594000D02*
X122830000Y-253594000D01*
X122830000Y-253594000D02*
X126230000Y-253594000D01*
%TO.C,D88*%
X261500000Y-237193582D02*
X258100000Y-237193582D01*
X261500000Y-234193582D02*
X261500000Y-237193582D01*
X258100000Y-237193582D02*
X258100000Y-234193582D01*
X258100000Y-234193582D02*
X261500000Y-234193582D01*
%TO.C,D132*%
X289987592Y-271545077D02*
X286587592Y-271545077D01*
X289987592Y-268545077D02*
X289987592Y-271545077D01*
X286587592Y-271545077D02*
X286587592Y-268545077D01*
X286587592Y-268545077D02*
X289987592Y-268545077D01*
%TO.C,D81*%
X312375000Y-214718582D02*
X315775000Y-214718582D01*
X312375000Y-217718582D02*
X312375000Y-214718582D01*
X315775000Y-214718582D02*
X315775000Y-217718582D01*
X315775000Y-217718582D02*
X312375000Y-217718582D01*
%TO.C,D113*%
X104730000Y-236494000D02*
X108130000Y-236494000D01*
X104730000Y-239494000D02*
X104730000Y-236494000D01*
X108130000Y-236494000D02*
X108130000Y-239494000D01*
X108130000Y-239494000D02*
X104730000Y-239494000D01*
%TO.C,D135*%
X216705000Y-244912582D02*
X213305000Y-244912582D01*
X216705000Y-241912582D02*
X216705000Y-244912582D01*
X213305000Y-244912582D02*
X213305000Y-241912582D01*
X213305000Y-241912582D02*
X216705000Y-241912582D01*
%TO.C,D131*%
X333875000Y-273768582D02*
X330475000Y-273768582D01*
X333875000Y-270768582D02*
X333875000Y-273768582D01*
X330475000Y-273768582D02*
X330475000Y-270768582D01*
X330475000Y-270768582D02*
X333875000Y-270768582D01*
%TO.C,D87*%
X279600000Y-234818582D02*
X276200000Y-234818582D01*
X279600000Y-231818582D02*
X279600000Y-234818582D01*
X276200000Y-234818582D02*
X276200000Y-231818582D01*
X276200000Y-231818582D02*
X279600000Y-231818582D01*
%TO.C,D127*%
X312375000Y-248918582D02*
X315775000Y-248918582D01*
X312375000Y-251918582D02*
X312375000Y-248918582D01*
X315775000Y-248918582D02*
X315775000Y-251918582D01*
X315775000Y-251918582D02*
X312375000Y-251918582D01*
%TO.C,D134*%
X248918681Y-281267320D02*
X247218681Y-278322834D01*
X251516757Y-279767320D02*
X248918681Y-281267320D01*
X247218681Y-278322834D02*
X249816757Y-276822834D01*
X249816757Y-276822834D02*
X251516757Y-279767320D01*
%TO.C,D112*%
X216705000Y-227819000D02*
X213305000Y-227819000D01*
X216705000Y-224819000D02*
X216705000Y-227819000D01*
X213305000Y-227819000D02*
X213305000Y-224819000D01*
X213305000Y-224819000D02*
X216705000Y-224819000D01*
%TO.C,D111*%
X108130000Y-222394000D02*
X104730000Y-222394000D01*
X108130000Y-219394000D02*
X108130000Y-222394000D01*
X104730000Y-222394000D02*
X104730000Y-219394000D01*
X104730000Y-219394000D02*
X108130000Y-219394000D01*
%TO.C,D136*%
X198616577Y-254237582D02*
X195216577Y-254237582D01*
X198616577Y-251237582D02*
X198616577Y-254237582D01*
X195216577Y-254237582D02*
X195216577Y-251237582D01*
X195216577Y-251237582D02*
X198616577Y-251237582D01*
%TO.C,D74*%
X351975000Y-205393582D02*
X348575000Y-205393582D01*
X351975000Y-202393582D02*
X351975000Y-205393582D01*
X348575000Y-205393582D02*
X348575000Y-202393582D01*
X348575000Y-202393582D02*
X351975000Y-202393582D01*
%TO.C,D92*%
X348575000Y-253668582D02*
X351975000Y-253668582D01*
X348575000Y-256668582D02*
X348575000Y-253668582D01*
X351975000Y-253668582D02*
X351975000Y-256668582D01*
X351975000Y-256668582D02*
X348575000Y-256668582D01*
%TO.C,D144*%
X166716577Y-268487582D02*
X170116577Y-268487582D01*
X166716577Y-271487582D02*
X166716577Y-268487582D01*
X170116577Y-268487582D02*
X170116577Y-271487582D01*
X170116577Y-271487582D02*
X166716577Y-271487582D01*
%TO.C,D124*%
X258100000Y-251293582D02*
X261500000Y-251293582D01*
X258100000Y-254293582D02*
X258100000Y-251293582D01*
X261500000Y-251293582D02*
X261500000Y-254293582D01*
X261500000Y-254293582D02*
X258100000Y-254293582D01*
%TO.C,D114*%
X177130000Y-197569000D02*
X180530000Y-197569000D01*
X177130000Y-200569000D02*
X177130000Y-197569000D01*
X180530000Y-197569000D02*
X180530000Y-200569000D01*
X180530000Y-200569000D02*
X177130000Y-200569000D01*
%TO.C,D109*%
X86630000Y-236494000D02*
X90030000Y-236494000D01*
X86630000Y-239494000D02*
X86630000Y-236494000D01*
X90030000Y-236494000D02*
X90030000Y-239494000D01*
X90030000Y-239494000D02*
X86630000Y-239494000D01*
%TO.C,D77*%
X297700000Y-198268582D02*
X294300000Y-198268582D01*
X297700000Y-195268582D02*
X297700000Y-198268582D01*
X294300000Y-198268582D02*
X294300000Y-195268582D01*
X294300000Y-195268582D02*
X297700000Y-195268582D01*
%TO.C,D129*%
X370075000Y-273768582D02*
X366675000Y-273768582D01*
X370075000Y-270768582D02*
X370075000Y-273768582D01*
X366675000Y-273768582D02*
X366675000Y-270768582D01*
X366675000Y-270768582D02*
X370075000Y-270768582D01*
%TO.C,D145*%
X189463092Y-271031343D02*
X192747239Y-271911328D01*
X188686635Y-273929120D02*
X189463092Y-271031343D01*
X192747239Y-271911328D02*
X191970782Y-274809105D01*
X191970782Y-274809105D02*
X188686635Y-273929120D01*
%TO.C,D146*%
X205196662Y-279722096D02*
X206896662Y-276777610D01*
X207794738Y-281222096D02*
X205196662Y-279722096D01*
X206896662Y-276777610D02*
X209494738Y-278277610D01*
X209494738Y-278277610D02*
X207794738Y-281222096D01*
%TO.C,D97*%
X315775000Y-234818582D02*
X312375000Y-234818582D01*
X315775000Y-231818582D02*
X315775000Y-234818582D01*
X312375000Y-234818582D02*
X312375000Y-231818582D01*
X312375000Y-231818582D02*
X315775000Y-231818582D01*
%TO.C,D143*%
X122830000Y-270669000D02*
X126230000Y-270669000D01*
X122830000Y-273669000D02*
X122830000Y-270669000D01*
X126230000Y-270669000D02*
X126230000Y-273669000D01*
X126230000Y-273669000D02*
X122830000Y-273669000D01*
%TO.C,D117*%
X122830000Y-236494000D02*
X126230000Y-236494000D01*
X122830000Y-239494000D02*
X122830000Y-236494000D01*
X126230000Y-236494000D02*
X126230000Y-239494000D01*
X126230000Y-239494000D02*
X122830000Y-239494000D01*
%TO.C,D91*%
X276200000Y-214718582D02*
X279600000Y-214718582D01*
X276200000Y-217718582D02*
X276200000Y-214718582D01*
X279600000Y-214718582D02*
X279600000Y-217718582D01*
X279600000Y-217718582D02*
X276200000Y-217718582D01*
%TO.C,D105*%
X90030000Y-256594000D02*
X86630000Y-256594000D01*
X90030000Y-253594000D02*
X90030000Y-256594000D01*
X86630000Y-256594000D02*
X86630000Y-253594000D01*
X86630000Y-253594000D02*
X90030000Y-253594000D01*
%TO.C,D93*%
X366675000Y-253668582D02*
X370075000Y-253668582D01*
X366675000Y-256668582D02*
X366675000Y-253668582D01*
X370075000Y-253668582D02*
X370075000Y-256668582D01*
X370075000Y-256668582D02*
X366675000Y-256668582D01*
%TO.C,D103*%
X144330000Y-217694000D02*
X140930000Y-217694000D01*
X144330000Y-214694000D02*
X144330000Y-217694000D01*
X140930000Y-217694000D02*
X140930000Y-214694000D01*
X140930000Y-214694000D02*
X144330000Y-214694000D01*
%TO.C,D110*%
X159030000Y-195194000D02*
X162430000Y-195194000D01*
X159030000Y-198194000D02*
X159030000Y-195194000D01*
X162430000Y-195194000D02*
X162430000Y-198194000D01*
X162430000Y-198194000D02*
X159030000Y-198194000D01*
%TO.C,D95*%
X351975000Y-239568582D02*
X348575000Y-239568582D01*
X351975000Y-236568582D02*
X351975000Y-239568582D01*
X348575000Y-239568582D02*
X348575000Y-236568582D01*
X348575000Y-236568582D02*
X351975000Y-236568582D01*
%TO.C,D86*%
X297700000Y-232468582D02*
X294300000Y-232468582D01*
X297700000Y-229468582D02*
X297700000Y-232468582D01*
X294300000Y-232468582D02*
X294300000Y-229468582D01*
X294300000Y-229468582D02*
X297700000Y-229468582D01*
%TO.C,D130*%
X351975000Y-273768582D02*
X348575000Y-273768582D01*
X351975000Y-270768582D02*
X351975000Y-273768582D01*
X348575000Y-273768582D02*
X348575000Y-270768582D01*
X348575000Y-270768582D02*
X351975000Y-270768582D01*
%TD*%
M02*
