M48
; DRILL file {KiCad 7.0.8} date Fri Aug 29 19:41:39 2025
; FORMAT={-:-/ absolute / inch / decimal}
; #@! TF.CreationDate,2025-08-29T19:41:39-04:00
; #@! TF.GenerationSoftware,Kicad,Pcbnew,7.0.8
; #@! TF.FileFunction,NonPlated,1,2,NPTH
FMAT,2
INCH
; #@! TA.AperFunction,NonPlated,NPTH,ComponentDrill
T1C0.0256
; #@! TA.AperFunction,NonPlated,NPTH,ComponentDrill
T2C0.0310
; #@! TA.AperFunction,NonPlated,NPTH,ComponentDrill
T3C0.0472
; #@! TA.AperFunction,NonPlated,NPTH,ComponentDrill
T4C0.0748
; #@! TA.AperFunction,NonPlated,NPTH,ComponentDrill
T5C0.0866
; #@! TA.AperFunction,NonPlated,NPTH,ComponentDrill
T6C0.1201
; #@! TA.AperFunction,NonPlated,NPTH,ComponentDrill
T7C0.1358
%
G90
G05
T1
X8.3116Y-7.8088
X8.5392Y-7.8088
X9.4423Y-7.81
X9.6699Y-7.81
T2
X4.0075Y-7.6486
X4.0075Y-7.7853
X4.0575Y-7.6486
X4.0575Y-7.7853
X4.1075Y-7.6486
X4.1075Y-7.7853
X4.1575Y-7.6486
X4.1575Y-7.7853
X4.2071Y-11.349
X4.2071Y-11.4856
X4.2075Y-7.6486
X4.2075Y-7.7853
X4.2571Y-11.349
X4.2571Y-11.4856
X4.3071Y-11.349
X4.3071Y-11.4856
X4.3571Y-11.349
X4.3571Y-11.4856
X4.4071Y-11.349
X4.4071Y-11.4856
X6.0965Y-11.3675
X6.0969Y-11.2309
X6.1465Y-11.3675
X6.1469Y-11.2309
X6.1965Y-11.3675
X6.1969Y-11.2309
X6.2465Y-11.3675
X6.2469Y-11.2309
X6.2965Y-11.3675
X6.2969Y-11.2309
X6.7701Y-7.4116
X6.7701Y-7.5491
X6.8201Y-7.4116
X6.8201Y-7.5491
X6.8701Y-7.4116
X6.8701Y-7.5491
X6.9201Y-7.4116
X6.9201Y-7.5491
X6.9701Y-7.4116
X6.9701Y-7.5491
X8.9072Y-8.165
X8.9072Y-8.215
X8.9072Y-8.265
X8.9072Y-8.315
X8.9072Y-8.365
X8.9074Y-9.811
X8.9074Y-9.861
X8.9074Y-9.911
X8.9074Y-9.961
X8.9074Y-10.011
X9.0742Y-8.165
X9.0742Y-8.215
X9.0742Y-8.265
X9.0742Y-8.315
X9.0742Y-8.365
X9.0744Y-9.811
X9.0744Y-9.861
X9.0744Y-9.911
X9.0744Y-9.961
X9.0744Y-10.011
X11.0114Y-7.4116
X11.0114Y-7.5491
X11.0614Y-7.4116
X11.0614Y-7.5491
X11.1114Y-7.4116
X11.1114Y-7.5491
X11.1614Y-7.4116
X11.1614Y-7.5491
X11.2114Y-7.4116
X11.2114Y-7.5491
X11.6864Y-11.2309
X11.6864Y-11.3675
X11.7364Y-11.2309
X11.7364Y-11.3675
X11.7864Y-11.2309
X11.7864Y-11.3675
X11.8364Y-11.2309
X11.8364Y-11.3675
X11.8864Y-11.2309
X11.8864Y-11.3675
X13.5762Y-11.349
X13.5762Y-11.486
X13.6262Y-11.349
X13.6262Y-11.486
X13.6762Y-11.349
X13.6762Y-11.486
X13.7262Y-11.349
X13.7262Y-11.486
X13.773Y-7.6484
X13.773Y-7.7853
X13.7762Y-11.349
X13.7762Y-11.486
X13.823Y-7.6484
X13.823Y-7.7853
X13.873Y-7.6484
X13.873Y-7.7853
X13.923Y-7.6484
X13.923Y-7.7853
X13.973Y-7.6484
X13.973Y-7.7853
T3
X8.5621Y-10.3189
X8.8377Y-10.3189
X9.1437Y-10.3189
X9.4193Y-10.3189
T4
X3.261Y-8.2202
X3.261Y-8.8935
X3.261Y-9.5667
X3.261Y-10.2399
X3.261Y-10.9122
X3.6941Y-8.2202
X3.6941Y-8.8935
X3.6941Y-9.5667
X3.6941Y-10.2399
X3.6941Y-10.9122
X3.9736Y-8.2202
X3.9736Y-8.8935
X3.9736Y-9.5667
X3.9736Y-10.2399
X3.9736Y-10.9122
X4.4067Y-8.2202
X4.4067Y-8.8935
X4.4067Y-9.5667
X4.4067Y-10.2399
X4.4067Y-10.9122
X4.6862Y-8.2202
X4.6862Y-8.8935
X4.6862Y-9.5667
X4.6862Y-10.2399
X4.6862Y-10.9122
X5.1193Y-8.2202
X5.1193Y-8.8935
X5.1193Y-9.5667
X5.1193Y-10.2399
X5.1193Y-10.9122
X5.3988Y-8.0352
X5.3988Y-8.7084
X5.3988Y-9.3807
X5.3988Y-10.0536
X5.8319Y-8.0352
X5.8319Y-8.7084
X5.8319Y-9.3807
X5.8319Y-10.0536
X6.1114Y-7.9407
X6.1114Y-8.6139
X6.1114Y-9.2872
X6.1114Y-9.9601
X6.414Y-10.8263
X6.5445Y-7.9407
X6.5445Y-8.6139
X6.5445Y-9.2872
X6.5445Y-9.9601
X6.824Y-8.0342
X6.824Y-8.7074
X6.824Y-9.3807
X6.824Y-10.0536
X6.8471Y-10.8263
X7.2486Y-10.879
X7.2571Y-8.0342
X7.2571Y-8.7074
X7.2571Y-9.3807
X7.2571Y-10.0536
X7.5356Y-9.4742
X7.5361Y-10.1471
X7.5366Y-8.1297
X7.5366Y-8.8019
X7.6669Y-10.9911
X7.9687Y-9.4742
X7.9692Y-10.1471
X7.9697Y-8.1297
X7.9697Y-8.8019
X8.2175Y-11.267
X8.2482Y-9.107
X8.2482Y-9.78
X8.434Y-10.892
X8.6813Y-9.107
X8.6813Y-9.78
X9.3002Y-9.109
X9.3002Y-9.7822
X9.5389Y-10.8969
X9.7333Y-9.109
X9.7333Y-9.7822
X9.7554Y-11.272
X10.0118Y-8.1297
X10.0118Y-8.8029
X10.0118Y-9.4761
X10.0118Y-10.1494
X10.314Y-10.9929
X10.4449Y-8.1297
X10.4449Y-8.8029
X10.4449Y-9.4761
X10.4449Y-10.1494
X10.7244Y-8.0362
X10.7244Y-8.7094
X10.7244Y-9.3826
X10.7244Y-10.0558
X10.7323Y-10.8808
X11.1334Y-10.8285
X11.1575Y-8.0362
X11.1575Y-8.7094
X11.1575Y-9.3826
X11.1575Y-10.0558
X11.437Y-7.9436
X11.437Y-8.6169
X11.437Y-9.2901
X11.437Y-9.9623
X11.5664Y-10.8285
X11.8701Y-7.9436
X11.8701Y-8.6169
X11.8701Y-9.2901
X11.8701Y-9.9623
X12.1486Y-8.0362
X12.1496Y-8.7094
X12.1496Y-9.3826
X12.1496Y-10.0558
X12.5817Y-8.0362
X12.5827Y-8.7094
X12.5827Y-9.3826
X12.5827Y-10.0558
X12.8612Y-8.2242
X12.8612Y-8.8974
X12.8612Y-9.5696
X12.8612Y-10.2429
X12.8612Y-10.9161
X13.2943Y-8.2242
X13.2943Y-8.8974
X13.2943Y-9.5696
X13.2943Y-10.2429
X13.2943Y-10.9161
X13.5738Y-8.2242
X13.5738Y-8.8974
X13.5738Y-9.5696
X13.5738Y-10.2429
X13.5738Y-10.9161
X14.0069Y-8.2242
X14.0069Y-8.8974
X14.0069Y-9.5696
X14.0069Y-10.2429
X14.0069Y-10.9161
X14.2864Y-8.2242
X14.2864Y-8.8974
X14.2864Y-9.5696
X14.2864Y-10.2429
X14.2864Y-10.9161
X14.7195Y-8.2242
X14.7195Y-8.8974
X14.7195Y-9.5696
X14.7195Y-10.2429
X14.7195Y-10.9161
T5
X3.1242Y-7.9016
X3.1242Y-11.2323
X5.9717Y-9.0976
X8.0512Y-7.6614
X8.3465Y-11.6496
X9.635Y-11.6496
X9.9303Y-7.6614
X12.0098Y-9.0976
X14.8573Y-7.9016
X14.8573Y-11.2323
T6
X3.4776Y-8.4525
X3.4776Y-9.1257
X3.4776Y-9.799
X3.4776Y-10.4722
X3.4776Y-11.1444
X3.6744Y-8.3698
X3.6744Y-9.0431
X3.6744Y-9.7163
X3.6744Y-10.3895
X3.6744Y-11.0618
X4.1902Y-8.4525
X4.1902Y-9.1257
X4.1902Y-9.799
X4.1902Y-10.4722
X4.1902Y-11.1444
X4.387Y-8.3698
X4.387Y-9.0431
X4.387Y-9.7163
X4.387Y-10.3895
X4.387Y-11.0618
X4.9028Y-8.4525
X4.9028Y-9.1257
X4.9028Y-9.799
X4.9028Y-10.4722
X4.9028Y-11.1444
X5.0996Y-8.3698
X5.0996Y-9.0431
X5.0996Y-9.7163
X5.0996Y-10.3895
X5.0996Y-11.0618
X5.6154Y-8.2675
X5.6154Y-8.9407
X5.6154Y-9.613
X5.6154Y-10.2859
X5.8122Y-8.1848
X5.8122Y-8.858
X5.8122Y-9.5303
X5.8122Y-10.2033
X6.328Y-8.173
X6.328Y-8.8462
X6.328Y-9.5194
X6.328Y-10.1924
X6.5248Y-8.0903
X6.5248Y-8.7635
X6.5248Y-9.4368
X6.5248Y-10.1097
X6.6306Y-11.0586
X6.8274Y-10.9759
X7.0406Y-8.2665
X7.0406Y-8.9397
X7.0406Y-9.613
X7.0406Y-10.2859
X7.2374Y-8.1838
X7.2374Y-8.857
X7.2374Y-9.5303
X7.2374Y-10.2033
X7.3976Y-11.1594
X7.6091Y-11.1305
X7.7522Y-9.7065
X7.7526Y-10.3794
X7.7531Y-8.362
X7.7531Y-9.0342
X7.949Y-9.6238
X7.9495Y-10.2968
X7.95Y-8.2793
X7.95Y-8.9515
X8.4648Y-9.3393
X8.4648Y-10.0123
X8.5269Y-11.1956
X8.5537Y-10.9838
X8.6616Y-9.2567
X8.6616Y-9.9296
X9.446Y-11.2006
X9.5167Y-9.3413
X9.5167Y-10.0145
X9.616Y-11.3297
X9.7136Y-9.2586
X9.7136Y-9.9318
X10.2283Y-8.362
X10.2283Y-9.0352
X10.2283Y-9.7084
X10.2283Y-10.3816
X10.4252Y-8.2793
X10.4252Y-8.9525
X10.4252Y-9.6257
X10.4252Y-10.299
X10.5833Y-11.1612
X10.752Y-11.0304
X10.9409Y-8.2684
X10.9409Y-8.9417
X10.9409Y-9.6149
X10.9409Y-10.2881
X11.1378Y-8.1858
X11.1378Y-8.859
X11.1378Y-9.5322
X11.1378Y-10.2055
X11.3499Y-11.0608
X11.5468Y-10.9782
X11.6535Y-8.1759
X11.6535Y-8.8492
X11.6535Y-9.5224
X11.6535Y-10.1946
X11.8504Y-8.0933
X11.8504Y-8.7665
X11.8504Y-9.4397
X11.8504Y-10.112
X12.3652Y-8.2684
X12.3661Y-8.9417
X12.3661Y-9.6149
X12.3661Y-10.2881
X12.562Y-8.1858
X12.563Y-8.859
X12.563Y-9.5322
X12.563Y-10.2055
X13.0778Y-8.4564
X13.0778Y-9.1297
X13.0778Y-9.8019
X13.0778Y-10.4751
X13.0778Y-11.1484
X13.2746Y-8.3738
X13.2746Y-9.047
X13.2746Y-9.7192
X13.2746Y-10.3925
X13.2746Y-11.0657
X13.7904Y-8.4564
X13.7904Y-9.1297
X13.7904Y-9.8019
X13.7904Y-10.4751
X13.7904Y-11.1484
X13.9872Y-8.3738
X13.9872Y-9.047
X13.9872Y-9.7192
X13.9872Y-10.3925
X13.9872Y-11.0657
X14.503Y-8.4564
X14.503Y-9.1297
X14.503Y-9.8019
X14.503Y-10.4751
X14.503Y-11.1484
X14.6998Y-8.3738
X14.6998Y-9.047
X14.6998Y-9.7192
X14.6998Y-10.3925
X14.6998Y-11.0657
T7
X3.4776Y-8.2202
X3.4776Y-8.8935
X3.4776Y-9.5667
X3.4776Y-10.2399
X3.4776Y-10.9122
X4.1902Y-8.2202
X4.1902Y-8.8935
X4.1902Y-9.5667
X4.1902Y-10.2399
X4.1902Y-10.9122
X4.9028Y-8.2202
X4.9028Y-8.8935
X4.9028Y-9.5667
X4.9028Y-10.2399
X4.9028Y-10.9122
X5.6154Y-8.0352
X5.6154Y-8.7084
X5.6154Y-9.3807
X5.6154Y-10.0536
X6.328Y-7.9407
X6.328Y-8.6139
X6.328Y-9.2872
X6.328Y-9.9601
X6.6306Y-10.8263
X7.0406Y-8.0342
X7.0406Y-8.7074
X7.0406Y-9.3807
X7.0406Y-10.0536
X7.4577Y-10.935
X7.7522Y-9.4742
X7.7526Y-10.1471
X7.7531Y-8.1297
X7.7531Y-8.8019
X8.3257Y-11.0795
X8.4648Y-9.107
X8.4648Y-9.78
X9.5167Y-9.109
X9.5167Y-9.7822
X9.6471Y-11.0845
X10.2283Y-8.1297
X10.2283Y-8.8029
X10.2283Y-9.4761
X10.2283Y-10.1494
X10.5231Y-10.9368
X10.9409Y-8.0362
X10.9409Y-8.7094
X10.9409Y-9.3826
X10.9409Y-10.0558
X11.3499Y-10.8285
X11.6535Y-7.9436
X11.6535Y-8.6169
X11.6535Y-9.2901
X11.6535Y-9.9623
X12.3652Y-8.0362
X12.3661Y-8.7094
X12.3661Y-9.3826
X12.3661Y-10.0558
X13.0778Y-8.2242
X13.0778Y-8.8974
X13.0778Y-9.5696
X13.0778Y-10.2429
X13.0778Y-10.9161
X13.7904Y-8.2242
X13.7904Y-8.8974
X13.7904Y-9.5696
X13.7904Y-10.2429
X13.7904Y-10.9161
X14.503Y-8.2242
X14.503Y-8.8974
X14.503Y-9.5696
X14.503Y-10.2429
X14.503Y-10.9161
T0
M30
