%TF.GenerationSoftware,KiCad,Pcbnew,7.0.8*%
%TF.CreationDate,2025-08-29T19:41:29-04:00*%
%TF.ProjectId,Sango,53616e67-6f2e-46b6-9963-61645f706362,rev?*%
%TF.SameCoordinates,Original*%
%TF.FileFunction,Paste,Top*%
%TF.FilePolarity,Positive*%
%FSLAX46Y46*%
G04 Gerber Fmt 4.6, Leading zero omitted, Abs format (unit mm)*
G04 Created by KiCad (PCBNEW 7.0.8) date 2025-08-29 19:41:29*
%MOMM*%
%LPD*%
G01*
G04 APERTURE LIST*
G04 Aperture macros list*
%AMRoundRect*
0 Rectangle with rounded corners*
0 $1 Rounding radius*
0 $2 $3 $4 $5 $6 $7 $8 $9 X,Y pos of 4 corners*
0 Add a 4 corners polygon primitive as box body*
4,1,4,$2,$3,$4,$5,$6,$7,$8,$9,$2,$3,0*
0 Add four circle primitives for the rounded corners*
1,1,$1+$1,$2,$3*
1,1,$1+$1,$4,$5*
1,1,$1+$1,$6,$7*
1,1,$1+$1,$8,$9*
0 Add four rect primitives between the rounded corners*
20,1,$1+$1,$2,$3,$4,$5,0*
20,1,$1+$1,$4,$5,$6,$7,0*
20,1,$1+$1,$6,$7,$8,$9,0*
20,1,$1+$1,$8,$9,$2,$3,0*%
%AMRotRect*
0 Rectangle, with rotation*
0 The origin of the aperture is its center*
0 $1 length*
0 $2 width*
0 $3 Rotation angle, in degrees counterclockwise*
0 Add horizontal line*
21,1,$1,$2,0,0,$3*%
G04 Aperture macros list end*
%ADD10R,1.700000X0.820000*%
%ADD11RoundRect,0.205000X0.645000X0.205000X-0.645000X0.205000X-0.645000X-0.205000X0.645000X-0.205000X0*%
%ADD12RoundRect,0.112500X0.187500X0.112500X-0.187500X0.112500X-0.187500X-0.112500X0.187500X-0.112500X0*%
%ADD13RoundRect,0.112500X-0.187500X-0.112500X0.187500X-0.112500X0.187500X0.112500X-0.187500X0.112500X0*%
%ADD14RoundRect,0.225000X-0.250000X0.225000X-0.250000X-0.225000X0.250000X-0.225000X0.250000X0.225000X0*%
%ADD15RoundRect,0.205000X-0.645000X-0.205000X0.645000X-0.205000X0.645000X0.205000X-0.645000X0.205000X0*%
%ADD16RoundRect,0.200000X0.200000X0.275000X-0.200000X0.275000X-0.200000X-0.275000X0.200000X-0.275000X0*%
%ADD17RoundRect,0.112500X-0.003678X0.218630X-0.191178X-0.106130X0.003678X-0.218630X0.191178X0.106130X0*%
%ADD18RoundRect,0.225000X-0.225000X-0.250000X0.225000X-0.250000X0.225000X0.250000X-0.225000X0.250000X0*%
%ADD19RoundRect,0.200000X-0.275000X0.200000X-0.275000X-0.200000X0.275000X-0.200000X0.275000X0.200000X0*%
%ADD20RoundRect,0.200000X0.275000X-0.200000X0.275000X0.200000X-0.275000X0.200000X-0.275000X-0.200000X0*%
%ADD21R,0.550000X1.500000*%
%ADD22RoundRect,0.225000X0.250000X-0.225000X0.250000X0.225000X-0.250000X0.225000X-0.250000X-0.225000X0*%
%ADD23RotRect,1.700000X0.820000X195.000000*%
%ADD24RoundRect,0.205000X0.569964X0.364953X-0.676080X0.031077X-0.569964X-0.364953X0.676080X-0.031077X0*%
%ADD25RoundRect,0.225000X0.375000X-0.225000X0.375000X0.225000X-0.375000X0.225000X-0.375000X-0.225000X0*%
%ADD26R,0.500000X0.375000*%
%ADD27R,0.650000X0.300000*%
%ADD28RoundRect,0.218750X0.256250X-0.218750X0.256250X0.218750X-0.256250X0.218750X-0.256250X-0.218750X0*%
%ADD29RoundRect,0.218750X-0.256250X0.218750X-0.256250X-0.218750X0.256250X-0.218750X0.256250X0.218750X0*%
%ADD30RoundRect,0.150000X-0.150000X0.512500X-0.150000X-0.512500X0.150000X-0.512500X0.150000X0.512500X0*%
%ADD31R,1.400000X1.200000*%
%ADD32RoundRect,0.112500X0.210228X0.060138X-0.151994X0.157195X-0.210228X-0.060138X0.151994X-0.157195X0*%
%ADD33R,1.500000X0.550000*%
%ADD34RoundRect,0.200000X-0.200000X-0.275000X0.200000X-0.275000X0.200000X0.275000X-0.200000X0.275000X0*%
%ADD35R,0.600000X1.450000*%
%ADD36R,0.300000X1.450000*%
%ADD37RotRect,1.700000X0.820000X120.000000*%
%ADD38RoundRect,0.205000X0.500035X-0.456086X-0.144965X0.661086X-0.500035X0.456086X0.144965X-0.661086X0*%
%ADD39RotRect,1.700000X0.820000X345.000000*%
%ADD40RoundRect,0.205000X-0.676080X-0.031077X0.569964X-0.364953X0.676080X0.031077X-0.569964X0.364953X0*%
%ADD41RotRect,1.700000X0.820000X60.000000*%
%ADD42RoundRect,0.205000X-0.144965X-0.661086X0.500035X0.456086X0.144965X0.661086X-0.500035X-0.456086X0*%
%ADD43R,0.375000X0.500000*%
%ADD44R,0.300000X0.650000*%
%ADD45R,0.900000X0.300000*%
%ADD46R,0.250000X1.650000*%
%ADD47RoundRect,0.225000X0.225000X0.250000X-0.225000X0.250000X-0.225000X-0.250000X0.225000X-0.250000X0*%
%ADD48RoundRect,0.112500X-0.151994X-0.157195X0.210228X-0.060138X0.151994X0.157195X-0.210228X0.060138X0*%
%ADD49RoundRect,0.218750X-0.218750X-0.256250X0.218750X-0.256250X0.218750X0.256250X-0.218750X0.256250X0*%
%ADD50RoundRect,0.112500X0.106130X0.191178X-0.218630X0.003678X-0.106130X-0.191178X0.218630X-0.003678X0*%
%ADD51RoundRect,0.249999X0.395001X0.395001X-0.395001X0.395001X-0.395001X-0.395001X0.395001X-0.395001X0*%
%ADD52RoundRect,0.050000X0.387500X0.050000X-0.387500X0.050000X-0.387500X-0.050000X0.387500X-0.050000X0*%
%ADD53RoundRect,0.050000X0.050000X0.387500X-0.050000X0.387500X-0.050000X-0.387500X0.050000X-0.387500X0*%
%ADD54RoundRect,0.249999X-0.395001X-0.395001X0.395001X-0.395001X0.395001X0.395001X-0.395001X0.395001X0*%
%ADD55RoundRect,0.050000X-0.387500X-0.050000X0.387500X-0.050000X0.387500X0.050000X-0.387500X0.050000X0*%
%ADD56RoundRect,0.050000X-0.050000X-0.387500X0.050000X-0.387500X0.050000X0.387500X-0.050000X0.387500X0*%
%ADD57RoundRect,0.250000X-1.025000X-1.000000X1.025000X-1.000000X1.025000X1.000000X-1.025000X1.000000X0*%
%ADD58RoundRect,0.250000X0.353525X-1.387676X1.378525X0.387676X-0.353525X1.387676X-1.378525X-0.387676X0*%
%ADD59RoundRect,0.250000X-1.248893X-0.700636X0.731255X-1.231215X1.248893X0.700636X-0.731255X1.231215X0*%
%ADD60RoundRect,0.250000X-0.731255X-1.231215X1.248893X-0.700636X0.731255X1.231215X-1.248893X0.700636X0*%
%ADD61RoundRect,0.250000X-1.378525X0.387676X-0.353525X-1.387676X1.378525X-0.387676X0.353525X1.387676X0*%
G04 APERTURE END LIST*
D10*
%TO.C,D139*%
X145180000Y-249612582D03*
X145180000Y-251112582D03*
D11*
X140080000Y-251112582D03*
D10*
X140080000Y-249612582D03*
%TD*%
D12*
%TO.C,D55*%
X166987500Y-243250000D03*
X164887500Y-243250000D03*
%TD*%
D13*
%TO.C,D19*%
X318380000Y-245870000D03*
X320480000Y-245870000D03*
%TD*%
D12*
%TO.C,D51*%
X94537500Y-250340000D03*
X92437500Y-250340000D03*
%TD*%
D14*
%TO.C,C6*%
X235380000Y-219505000D03*
X235380000Y-221055000D03*
%TD*%
D10*
%TO.C,D100*%
X158180000Y-231644000D03*
X158180000Y-230144000D03*
D15*
X163280000Y-230144000D03*
D10*
X163280000Y-231644000D03*
%TD*%
%TO.C,D121*%
X140080000Y-234019000D03*
X140080000Y-232519000D03*
D15*
X145180000Y-232519000D03*
D10*
X145180000Y-234019000D03*
%TD*%
%TO.C,D94*%
X370925000Y-237318582D03*
X370925000Y-238818582D03*
D11*
X365825000Y-238818582D03*
D10*
X365825000Y-237318582D03*
%TD*%
D16*
%TO.C,R9*%
X236305000Y-210880000D03*
X234655000Y-210880000D03*
%TD*%
D12*
%TO.C,D47*%
X149087500Y-228520000D03*
X146987500Y-228520000D03*
%TD*%
D10*
%TO.C,D96*%
X334725000Y-237318582D03*
X334725000Y-238818582D03*
D11*
X329625000Y-238818582D03*
D10*
X329625000Y-237318582D03*
%TD*%
%TO.C,D80*%
X293450000Y-214618582D03*
X293450000Y-213118582D03*
D15*
X298550000Y-213118582D03*
D10*
X298550000Y-214618582D03*
%TD*%
D14*
%TO.C,C17*%
X221760000Y-228115000D03*
X221760000Y-226565000D03*
%TD*%
D17*
%TO.C,D72*%
X221165000Y-279940673D03*
X220115000Y-281759327D03*
%TD*%
D13*
%TO.C,D33*%
X292450000Y-282430000D03*
X294550000Y-282430000D03*
%TD*%
%TO.C,D25*%
X282090000Y-262830000D03*
X284190000Y-262830000D03*
%TD*%
D10*
%TO.C,D123*%
X239175000Y-244218582D03*
X239175000Y-242718582D03*
D15*
X244275000Y-242718582D03*
D10*
X244275000Y-244218582D03*
%TD*%
%TO.C,D119*%
X85780000Y-204544000D03*
X85780000Y-203044000D03*
D15*
X90880000Y-203044000D03*
D10*
X90880000Y-204544000D03*
%TD*%
%TO.C,D138*%
X163280000Y-247237582D03*
X163280000Y-248737582D03*
D11*
X158180000Y-248737582D03*
D10*
X158180000Y-247237582D03*
%TD*%
D13*
%TO.C,D4*%
X318352500Y-211690000D03*
X320452500Y-211690000D03*
%TD*%
D12*
%TO.C,D67*%
X94760000Y-284510000D03*
X92660000Y-284510000D03*
%TD*%
D13*
%TO.C,D17*%
X282230000Y-245930000D03*
X284330000Y-245930000D03*
%TD*%
D18*
%TO.C,C19*%
X207570000Y-203810000D03*
X209120000Y-203810000D03*
%TD*%
D10*
%TO.C,D75*%
X334725000Y-203071600D03*
X334725000Y-204571600D03*
D11*
X329625000Y-204571600D03*
D10*
X329625000Y-203071600D03*
%TD*%
%TO.C,D126*%
X293450000Y-248793582D03*
X293450000Y-247293582D03*
D15*
X298550000Y-247293582D03*
D10*
X298550000Y-248793582D03*
%TD*%
D12*
%TO.C,D68*%
X112667500Y-284490000D03*
X110567500Y-284490000D03*
%TD*%
D13*
%TO.C,D34*%
X336480000Y-284630000D03*
X338580000Y-284630000D03*
%TD*%
D12*
%TO.C,D66*%
X221427500Y-255780000D03*
X219327500Y-255780000D03*
%TD*%
D19*
%TO.C,R2*%
X232260000Y-224385000D03*
X232260000Y-226035000D03*
%TD*%
D10*
%TO.C,D125*%
X275350000Y-251168582D03*
X275350000Y-249668582D03*
D15*
X280450000Y-249668582D03*
D10*
X280450000Y-251168582D03*
%TD*%
%TO.C,D142*%
X103880000Y-272919000D03*
X103880000Y-271419000D03*
D15*
X108980000Y-271419000D03*
D10*
X108980000Y-272919000D03*
%TD*%
D20*
%TO.C,R19*%
X215280000Y-203945000D03*
X215280000Y-202295000D03*
%TD*%
D12*
%TO.C,D39*%
X130697500Y-216120000D03*
X128597500Y-216120000D03*
%TD*%
%TO.C,D56*%
X185220000Y-245670000D03*
X183120000Y-245670000D03*
%TD*%
D21*
%TO.C,SW4*%
X220605000Y-209800000D03*
X223855000Y-209800000D03*
%TD*%
D10*
%TO.C,D120*%
X181380000Y-215419000D03*
X181380000Y-216919000D03*
D11*
X176280000Y-216919000D03*
D10*
X176280000Y-215419000D03*
%TD*%
D13*
%TO.C,D1*%
X264090000Y-214120000D03*
X266190000Y-214120000D03*
%TD*%
D10*
%TO.C,D99*%
X163280000Y-213044000D03*
X163280000Y-214544000D03*
D11*
X158180000Y-214544000D03*
D10*
X158180000Y-213044000D03*
%TD*%
D22*
%TO.C,C1*%
X234200000Y-201775000D03*
X234200000Y-200225000D03*
%TD*%
D13*
%TO.C,D23*%
X245942500Y-255880000D03*
X248042500Y-255880000D03*
%TD*%
D12*
%TO.C,D70*%
X174700000Y-282310000D03*
X172600000Y-282310000D03*
%TD*%
D10*
%TO.C,D141*%
X85780000Y-272919000D03*
X85780000Y-271419000D03*
D15*
X90880000Y-271419000D03*
D10*
X90880000Y-272919000D03*
%TD*%
%TO.C,D102*%
X121980000Y-204544000D03*
X121980000Y-203044000D03*
D15*
X127080000Y-203044000D03*
D10*
X127080000Y-204544000D03*
%TD*%
D23*
%TO.C,D133*%
X268262494Y-271581015D03*
X268650722Y-273029904D03*
D24*
X263724500Y-274349881D03*
D23*
X263336272Y-272900992D03*
%TD*%
D10*
%TO.C,D83*%
X347725000Y-221743582D03*
X347725000Y-220243582D03*
D15*
X352825000Y-220243582D03*
D10*
X352825000Y-221743582D03*
%TD*%
D20*
%TO.C,R20*%
X213730000Y-203955000D03*
X213730000Y-202305000D03*
%TD*%
D13*
%TO.C,D20*%
X336482500Y-250690000D03*
X338582500Y-250690000D03*
%TD*%
D10*
%TO.C,D82*%
X329625000Y-221743582D03*
X329625000Y-220243582D03*
D15*
X334725000Y-220243582D03*
D10*
X334725000Y-221743582D03*
%TD*%
%TO.C,D107*%
X127080000Y-220144000D03*
X127080000Y-221644000D03*
D11*
X121980000Y-221644000D03*
D10*
X121980000Y-220144000D03*
%TD*%
%TO.C,D116*%
X199466577Y-217819000D03*
X199466577Y-219319000D03*
D11*
X194366577Y-219319000D03*
D10*
X194366577Y-217819000D03*
%TD*%
%TO.C,D79*%
X262350000Y-200743582D03*
X262350000Y-202243582D03*
D11*
X257250000Y-202243582D03*
D10*
X257250000Y-200743582D03*
%TD*%
D12*
%TO.C,D50*%
X203207500Y-230960000D03*
X201107500Y-230960000D03*
%TD*%
D25*
%TO.C,D73*%
X232230000Y-202117500D03*
X232230000Y-198817500D03*
%TD*%
D19*
%TO.C,R7*%
X219200000Y-206435000D03*
X219200000Y-208085000D03*
%TD*%
D25*
%TO.C,D122*%
X224650000Y-201560000D03*
X224650000Y-198260000D03*
%TD*%
D26*
%TO.C,U5*%
X244590000Y-261372500D03*
D27*
X244515000Y-261910000D03*
D26*
X244590000Y-262447500D03*
X246290000Y-262447500D03*
D27*
X246365000Y-261910000D03*
D26*
X246290000Y-261372500D03*
%TD*%
D10*
%TO.C,D106*%
X140080000Y-199844000D03*
X140080000Y-198344000D03*
D15*
X145180000Y-198344000D03*
D10*
X145180000Y-199844000D03*
%TD*%
%TO.C,D98*%
X103880000Y-204544000D03*
X103880000Y-203044000D03*
D15*
X108980000Y-203044000D03*
D10*
X108980000Y-204544000D03*
%TD*%
D28*
%TO.C,FB1*%
X236750000Y-194452500D03*
X236750000Y-196027500D03*
%TD*%
D12*
%TO.C,D64*%
X185047500Y-262740000D03*
X182947500Y-262740000D03*
%TD*%
D29*
%TO.C,F1*%
X232910000Y-195782500D03*
X232910000Y-197357500D03*
%TD*%
D12*
%TO.C,D61*%
X130980000Y-267440000D03*
X128880000Y-267440000D03*
%TD*%
D10*
%TO.C,D118*%
X194366577Y-202244000D03*
X194366577Y-200744000D03*
D15*
X199466577Y-200744000D03*
D10*
X199466577Y-202244000D03*
%TD*%
D12*
%TO.C,D46*%
X130867500Y-233260000D03*
X128767500Y-233260000D03*
%TD*%
D10*
%TO.C,D84*%
X365825000Y-221743582D03*
X365825000Y-220243582D03*
D15*
X370925000Y-220243582D03*
D10*
X370925000Y-221743582D03*
%TD*%
%TO.C,D137*%
X181380000Y-249612582D03*
X181380000Y-251112582D03*
D11*
X176280000Y-251112582D03*
D10*
X176280000Y-249612582D03*
%TD*%
%TO.C,D89*%
X239175000Y-227118582D03*
X239175000Y-225618582D03*
D15*
X244275000Y-225618582D03*
D10*
X244275000Y-227118582D03*
%TD*%
D20*
%TO.C,R14*%
X239170000Y-204335000D03*
X239170000Y-202685000D03*
%TD*%
D10*
%TO.C,D90*%
X257250000Y-219343582D03*
X257250000Y-217843582D03*
D15*
X262350000Y-217843582D03*
D10*
X262350000Y-219343582D03*
%TD*%
%TO.C,D85*%
X370925000Y-203143582D03*
X370925000Y-204643582D03*
D11*
X365825000Y-204643582D03*
D10*
X365825000Y-203143582D03*
%TD*%
D18*
%TO.C,C10*%
X252340000Y-214670000D03*
X250790000Y-214670000D03*
%TD*%
D30*
%TO.C,U3*%
X225000000Y-203642500D03*
X224050000Y-203642500D03*
X223100000Y-203642500D03*
X223100000Y-205917500D03*
X225000000Y-205917500D03*
%TD*%
D18*
%TO.C,C30*%
X141665000Y-272210000D03*
X143215000Y-272210000D03*
%TD*%
D12*
%TO.C,D65*%
X203420000Y-265090000D03*
X201320000Y-265090000D03*
%TD*%
D31*
%TO.C,Y1*%
X245520000Y-203340000D03*
X243320000Y-203340000D03*
X243320000Y-205040000D03*
X245520000Y-205040000D03*
%TD*%
D10*
%TO.C,D76*%
X316625000Y-198368582D03*
X316625000Y-199868582D03*
D11*
X311525000Y-199868582D03*
D10*
X311525000Y-198368582D03*
%TD*%
D18*
%TO.C,C15*%
X209115000Y-202290000D03*
X207565000Y-202290000D03*
%TD*%
D10*
%TO.C,D128*%
X329625000Y-255918582D03*
X329625000Y-254418582D03*
D15*
X334725000Y-254418582D03*
D10*
X334725000Y-255918582D03*
%TD*%
D12*
%TO.C,D37*%
X94600000Y-216150000D03*
X92500000Y-216150000D03*
%TD*%
%TO.C,D49*%
X185317500Y-228500000D03*
X183217500Y-228500000D03*
%TD*%
D19*
%TO.C,R17*%
X220140000Y-198275000D03*
X220140000Y-199925000D03*
%TD*%
D16*
%TO.C,R3*%
X234225000Y-222620000D03*
X232575000Y-222620000D03*
%TD*%
D10*
%TO.C,D101*%
X108980000Y-254344000D03*
X108980000Y-255844000D03*
D11*
X103880000Y-255844000D03*
D10*
X103880000Y-254344000D03*
%TD*%
%TO.C,D78*%
X280450000Y-198368582D03*
X280450000Y-199868582D03*
D11*
X275350000Y-199868582D03*
D10*
X275350000Y-198368582D03*
%TD*%
D22*
%TO.C,C23*%
X213810000Y-222080000D03*
X213810000Y-220530000D03*
%TD*%
D18*
%TO.C,C5*%
X252340000Y-220740000D03*
X250790000Y-220740000D03*
%TD*%
D32*
%TO.C,D71*%
X193484222Y-286441760D03*
X191455778Y-285898240D03*
%TD*%
D10*
%TO.C,D104*%
X176280000Y-234019000D03*
X176280000Y-232519000D03*
D15*
X181380000Y-232519000D03*
D10*
X181380000Y-234019000D03*
%TD*%
D18*
%TO.C,C11*%
X232195000Y-216070000D03*
X233745000Y-216070000D03*
%TD*%
D21*
%TO.C,SW3*%
X221225000Y-218130000D03*
X224475000Y-218130000D03*
%TD*%
D10*
%TO.C,D108*%
X194366577Y-236394000D03*
X194366577Y-234894000D03*
D15*
X199466577Y-234894000D03*
D10*
X199466577Y-236394000D03*
%TD*%
D19*
%TO.C,R4*%
X232010000Y-209975000D03*
X232010000Y-211625000D03*
%TD*%
D13*
%TO.C,D26*%
X300330000Y-260430000D03*
X302430000Y-260430000D03*
%TD*%
D10*
%TO.C,D115*%
X90880000Y-220144000D03*
X90880000Y-221644000D03*
D11*
X85780000Y-221644000D03*
D10*
X85780000Y-220144000D03*
%TD*%
%TO.C,D140*%
X127080000Y-254344000D03*
X127080000Y-255844000D03*
D11*
X121980000Y-255844000D03*
D10*
X121980000Y-254344000D03*
%TD*%
D13*
%TO.C,D5*%
X336530000Y-216460000D03*
X338630000Y-216460000D03*
%TD*%
D18*
%TO.C,C14*%
X252340000Y-217700000D03*
X250790000Y-217700000D03*
%TD*%
D10*
%TO.C,D88*%
X262350000Y-234943582D03*
X262350000Y-236443582D03*
D11*
X257250000Y-236443582D03*
D10*
X257250000Y-234943582D03*
%TD*%
D12*
%TO.C,D45*%
X112847500Y-233210000D03*
X110747500Y-233210000D03*
%TD*%
D14*
%TO.C,C26*%
X219590000Y-220530000D03*
X219590000Y-222080000D03*
%TD*%
D10*
%TO.C,D132*%
X290837592Y-269295077D03*
X290837592Y-270795077D03*
D11*
X285737592Y-270795077D03*
D10*
X285737592Y-269295077D03*
%TD*%
D13*
%TO.C,D22*%
X372750000Y-250610000D03*
X374850000Y-250610000D03*
%TD*%
D10*
%TO.C,D81*%
X311525000Y-216968582D03*
X311525000Y-215468582D03*
D15*
X316625000Y-215468582D03*
D10*
X316625000Y-216968582D03*
%TD*%
%TO.C,D113*%
X103880000Y-238744000D03*
X103880000Y-237244000D03*
D15*
X108980000Y-237244000D03*
D10*
X108980000Y-238744000D03*
%TD*%
D19*
%TO.C,R11*%
X247670000Y-201005000D03*
X247670000Y-202655000D03*
%TD*%
D13*
%TO.C,D14*%
X372812500Y-233590000D03*
X374912500Y-233590000D03*
%TD*%
D31*
%TO.C,Y2*%
X215600000Y-221935000D03*
X217800000Y-221935000D03*
X217800000Y-220235000D03*
X215600000Y-220235000D03*
%TD*%
D13*
%TO.C,D12*%
X336350000Y-233580000D03*
X338450000Y-233580000D03*
%TD*%
D18*
%TO.C,C27*%
X209125000Y-206850000D03*
X207575000Y-206850000D03*
%TD*%
D12*
%TO.C,D48*%
X167180000Y-226190000D03*
X165080000Y-226190000D03*
%TD*%
D10*
%TO.C,D135*%
X217555000Y-242662582D03*
X217555000Y-244162582D03*
D11*
X212455000Y-244162582D03*
D10*
X212455000Y-242662582D03*
%TD*%
D33*
%TO.C,SW2*%
X232720000Y-220855000D03*
X232720000Y-217605000D03*
%TD*%
D12*
%TO.C,D41*%
X167017500Y-209050000D03*
X164917500Y-209050000D03*
%TD*%
%TO.C,D69*%
X130917500Y-284530000D03*
X128817500Y-284530000D03*
%TD*%
D10*
%TO.C,D131*%
X334725000Y-271518582D03*
X334725000Y-273018582D03*
D11*
X329625000Y-273018582D03*
D10*
X329625000Y-271518582D03*
%TD*%
D13*
%TO.C,D9*%
X282102500Y-228800000D03*
X284202500Y-228800000D03*
%TD*%
D10*
%TO.C,D87*%
X280450000Y-232568582D03*
X280450000Y-234068582D03*
D11*
X275350000Y-234068582D03*
D10*
X275350000Y-232568582D03*
%TD*%
D34*
%TO.C,R6*%
X220725000Y-207700000D03*
X222375000Y-207700000D03*
%TD*%
D10*
%TO.C,D127*%
X311525000Y-251168582D03*
X311525000Y-249668582D03*
D15*
X316625000Y-249668582D03*
D10*
X316625000Y-251168582D03*
%TD*%
D34*
%TO.C,R12*%
X235945000Y-201460000D03*
X237595000Y-201460000D03*
%TD*%
D12*
%TO.C,D58*%
X221237500Y-238700000D03*
X219137500Y-238700000D03*
%TD*%
D35*
%TO.C,J3*%
X217230000Y-199789000D03*
X216455000Y-199789000D03*
D36*
X215255000Y-199789000D03*
X214255000Y-199789000D03*
X213755000Y-199789000D03*
X212755000Y-199789000D03*
D35*
X211555000Y-199789000D03*
X210780000Y-199789000D03*
X210780000Y-199789000D03*
X211555000Y-199789000D03*
D36*
X212255000Y-199789000D03*
X213255000Y-199789000D03*
X214755000Y-199789000D03*
X215755000Y-199789000D03*
D35*
X216455000Y-199789000D03*
X217230000Y-199789000D03*
%TD*%
D34*
%TO.C,R10*%
X234655000Y-212400000D03*
X236305000Y-212400000D03*
%TD*%
D13*
%TO.C,D8*%
X264142500Y-231210000D03*
X266242500Y-231210000D03*
%TD*%
D37*
%TO.C,D134*%
X251292238Y-280878442D03*
X249993200Y-281628442D03*
D38*
X247443200Y-277211712D03*
D37*
X248742238Y-276461712D03*
%TD*%
D13*
%TO.C,D6*%
X354580000Y-216510000D03*
X356680000Y-216510000D03*
%TD*%
D16*
%TO.C,R1*%
X242820000Y-206690000D03*
X241170000Y-206690000D03*
%TD*%
D18*
%TO.C,C4*%
X252340000Y-216190000D03*
X250790000Y-216190000D03*
%TD*%
D13*
%TO.C,D3*%
X300402500Y-209420000D03*
X302502500Y-209420000D03*
%TD*%
D10*
%TO.C,D112*%
X217555000Y-225569000D03*
X217555000Y-227069000D03*
D11*
X212455000Y-227069000D03*
D10*
X212455000Y-225569000D03*
%TD*%
%TO.C,D111*%
X108980000Y-220144000D03*
X108980000Y-221644000D03*
D11*
X103880000Y-221644000D03*
D10*
X103880000Y-220144000D03*
%TD*%
%TO.C,D136*%
X199466577Y-251987582D03*
X199466577Y-253487582D03*
D11*
X194366577Y-253487582D03*
D10*
X194366577Y-251987582D03*
%TD*%
D13*
%TO.C,D18*%
X300150000Y-243500000D03*
X302250000Y-243500000D03*
%TD*%
D12*
%TO.C,D53*%
X130800000Y-250340000D03*
X128700000Y-250340000D03*
%TD*%
D10*
%TO.C,D74*%
X352825000Y-203143582D03*
X352825000Y-204643582D03*
D11*
X347725000Y-204643582D03*
D10*
X347725000Y-203143582D03*
%TD*%
D26*
%TO.C,U7*%
X212740000Y-263747500D03*
D27*
X212815000Y-263210000D03*
D26*
X212740000Y-262672500D03*
X211040000Y-262672500D03*
D27*
X210965000Y-263210000D03*
D26*
X211040000Y-263747500D03*
%TD*%
D10*
%TO.C,D92*%
X347725000Y-255918582D03*
X347725000Y-254418582D03*
D15*
X352825000Y-254418582D03*
D10*
X352825000Y-255918582D03*
%TD*%
%TO.C,D144*%
X165866577Y-270737582D03*
X165866577Y-269237582D03*
D15*
X170966577Y-269237582D03*
D10*
X170966577Y-270737582D03*
%TD*%
D12*
%TO.C,D63*%
X167057500Y-260320000D03*
X164957500Y-260320000D03*
%TD*%
%TO.C,D54*%
X148957500Y-245670000D03*
X146857500Y-245670000D03*
%TD*%
D18*
%TO.C,C21*%
X209355000Y-209890000D03*
X207805000Y-209890000D03*
%TD*%
%TO.C,C28*%
X209355000Y-208360000D03*
X207805000Y-208360000D03*
%TD*%
D10*
%TO.C,D124*%
X257250000Y-253543582D03*
X257250000Y-252043582D03*
D15*
X262350000Y-252043582D03*
D10*
X262350000Y-253543582D03*
%TD*%
%TO.C,D114*%
X176280000Y-199819000D03*
X176280000Y-198319000D03*
D15*
X181380000Y-198319000D03*
D10*
X181380000Y-199819000D03*
%TD*%
D13*
%TO.C,D36*%
X359882500Y-284770000D03*
X361982500Y-284770000D03*
%TD*%
D10*
%TO.C,D109*%
X85780000Y-238744000D03*
X85780000Y-237244000D03*
D15*
X90880000Y-237244000D03*
D10*
X90880000Y-238744000D03*
%TD*%
D14*
%TO.C,C2*%
X247320000Y-204395000D03*
X247320000Y-205945000D03*
%TD*%
D10*
%TO.C,D77*%
X298550000Y-196018582D03*
X298550000Y-197518582D03*
D11*
X293450000Y-197518582D03*
D10*
X293450000Y-196018582D03*
%TD*%
%TO.C,D129*%
X370925000Y-271518582D03*
X370925000Y-273018582D03*
D11*
X365825000Y-273018582D03*
D10*
X365825000Y-271518582D03*
%TD*%
D20*
%TO.C,R5*%
X221110000Y-222130000D03*
X221110000Y-220480000D03*
%TD*%
D13*
%TO.C,D35*%
X354590000Y-284690000D03*
X356690000Y-284690000D03*
%TD*%
%TO.C,D11*%
X318230000Y-228760000D03*
X320330000Y-228760000D03*
%TD*%
D39*
%TO.C,D145*%
X188059712Y-272984680D03*
X188447940Y-271535791D03*
D40*
X193374162Y-272855768D03*
D39*
X192985934Y-274304657D03*
%TD*%
D12*
%TO.C,D52*%
X112760000Y-250420000D03*
X110660000Y-250420000D03*
%TD*%
D41*
%TO.C,D146*%
X206720219Y-281583218D03*
X205421181Y-280833218D03*
D42*
X207971181Y-276416488D03*
D41*
X209270219Y-277166488D03*
%TD*%
D10*
%TO.C,D97*%
X316625000Y-232568582D03*
X316625000Y-234068582D03*
D11*
X311525000Y-234068582D03*
D10*
X311525000Y-232568582D03*
%TD*%
D12*
%TO.C,D62*%
X149300000Y-262700000D03*
X147200000Y-262700000D03*
%TD*%
D21*
%TO.C,SW1*%
X239355000Y-207540000D03*
X236105000Y-207540000D03*
%TD*%
D43*
%TO.C,U8*%
X216722500Y-206040000D03*
D44*
X217260000Y-206115000D03*
D43*
X217797500Y-206040000D03*
X217797500Y-204340000D03*
D44*
X217260000Y-204265000D03*
D43*
X216722500Y-204340000D03*
%TD*%
D12*
%TO.C,D42*%
X185177500Y-211450000D03*
X183077500Y-211450000D03*
%TD*%
D19*
%TO.C,R8*%
X222690000Y-220465000D03*
X222690000Y-222115000D03*
%TD*%
D45*
%TO.C,IC2*%
X211850000Y-206780000D03*
X211850000Y-207280000D03*
X211850000Y-207780000D03*
X211850000Y-208280000D03*
X214650000Y-208280000D03*
X214650000Y-207780000D03*
X214650000Y-207280000D03*
X214650000Y-206780000D03*
D46*
X213250000Y-207530000D03*
%TD*%
D34*
%TO.C,R16*%
X201575000Y-202290000D03*
X203225000Y-202290000D03*
%TD*%
D10*
%TO.C,D143*%
X121980000Y-272919000D03*
X121980000Y-271419000D03*
D15*
X127080000Y-271419000D03*
D10*
X127080000Y-272919000D03*
%TD*%
%TO.C,D117*%
X121980000Y-238744000D03*
X121980000Y-237244000D03*
D15*
X127080000Y-237244000D03*
D10*
X127080000Y-238744000D03*
%TD*%
D34*
%TO.C,R21*%
X221405000Y-213160000D03*
X223055000Y-213160000D03*
%TD*%
D12*
%TO.C,D57*%
X203117500Y-247990000D03*
X201017500Y-247990000D03*
%TD*%
D22*
%TO.C,C25*%
X219580000Y-223555000D03*
X219580000Y-225105000D03*
%TD*%
D14*
%TO.C,C7*%
X236900000Y-219505000D03*
X236900000Y-221055000D03*
%TD*%
D10*
%TO.C,D91*%
X275350000Y-216968582D03*
X275350000Y-215468582D03*
D15*
X280450000Y-215468582D03*
D10*
X280450000Y-216968582D03*
%TD*%
D18*
%TO.C,C12*%
X252335000Y-213150000D03*
X250785000Y-213150000D03*
%TD*%
D12*
%TO.C,D59*%
X94687500Y-267420000D03*
X92587500Y-267420000D03*
%TD*%
D30*
%TO.C,U1*%
X233960000Y-204292500D03*
X233010000Y-204292500D03*
X232060000Y-204292500D03*
X232060000Y-206567500D03*
X233960000Y-206567500D03*
%TD*%
D13*
%TO.C,D28*%
X336330000Y-267570000D03*
X338430000Y-267570000D03*
%TD*%
%TO.C,D10*%
X300442500Y-226490000D03*
X302542500Y-226490000D03*
%TD*%
D47*
%TO.C,C29*%
X313485000Y-268080000D03*
X311935000Y-268080000D03*
%TD*%
D13*
%TO.C,D7*%
X372580000Y-216480000D03*
X374680000Y-216480000D03*
%TD*%
D10*
%TO.C,D105*%
X90880000Y-254344000D03*
X90880000Y-255844000D03*
D11*
X85780000Y-255844000D03*
D10*
X85780000Y-254344000D03*
%TD*%
D13*
%TO.C,D13*%
X354552500Y-233600000D03*
X356652500Y-233600000D03*
%TD*%
%TO.C,D29*%
X354360000Y-267570000D03*
X356460000Y-267570000D03*
%TD*%
D48*
%TO.C,D32*%
X273325778Y-283751760D03*
X275354222Y-283208240D03*
%TD*%
D12*
%TO.C,D44*%
X94790000Y-233250000D03*
X92690000Y-233250000D03*
%TD*%
D10*
%TO.C,D93*%
X365825000Y-255918582D03*
X365825000Y-254418582D03*
D15*
X370925000Y-254418582D03*
D10*
X370925000Y-255918582D03*
%TD*%
D18*
%TO.C,C24*%
X223295000Y-225060000D03*
X221745000Y-225060000D03*
%TD*%
%TO.C,C3*%
X244265000Y-206690000D03*
X245815000Y-206690000D03*
%TD*%
%TO.C,C9*%
X232200000Y-214550000D03*
X233750000Y-214550000D03*
%TD*%
D12*
%TO.C,D40*%
X148977500Y-211400000D03*
X146877500Y-211400000D03*
%TD*%
D49*
%TO.C,F2*%
X223080000Y-196660000D03*
X224655000Y-196660000D03*
%TD*%
D10*
%TO.C,D103*%
X145180000Y-215444000D03*
X145180000Y-216944000D03*
D11*
X140080000Y-216944000D03*
D10*
X140080000Y-215444000D03*
%TD*%
D12*
%TO.C,D38*%
X112597500Y-216130000D03*
X110497500Y-216130000D03*
%TD*%
D10*
%TO.C,D110*%
X158180000Y-197444000D03*
X158180000Y-195944000D03*
D15*
X163280000Y-195944000D03*
D10*
X163280000Y-197444000D03*
%TD*%
D18*
%TO.C,C20*%
X207575000Y-205330000D03*
X209125000Y-205330000D03*
%TD*%
D35*
%TO.C,J1*%
X245950000Y-199820000D03*
X245175000Y-199820000D03*
D36*
X243975000Y-199820000D03*
X242975000Y-199820000D03*
X242475000Y-199820000D03*
X241475000Y-199820000D03*
D35*
X240275000Y-199820000D03*
X239500000Y-199820000D03*
X239500000Y-199820000D03*
X240275000Y-199820000D03*
D36*
X240975000Y-199820000D03*
X241975000Y-199820000D03*
X243475000Y-199820000D03*
X244475000Y-199820000D03*
D35*
X245175000Y-199820000D03*
X245950000Y-199820000D03*
%TD*%
D50*
%TO.C,D31*%
X250459327Y-288925000D03*
X248640673Y-289975000D03*
%TD*%
D51*
%TO.C,U2*%
X242460000Y-213832500D03*
X242460000Y-212232500D03*
X240860000Y-213832500D03*
X240860000Y-212232500D03*
D52*
X245097500Y-215632500D03*
X245097500Y-215232500D03*
X245097500Y-214832500D03*
X245097500Y-214432500D03*
X245097500Y-214032500D03*
X245097500Y-213632500D03*
X245097500Y-213232500D03*
X245097500Y-212832500D03*
X245097500Y-212432500D03*
X245097500Y-212032500D03*
X245097500Y-211632500D03*
X245097500Y-211232500D03*
X245097500Y-210832500D03*
X245097500Y-210432500D03*
D53*
X244260000Y-209595000D03*
X243860000Y-209595000D03*
X243460000Y-209595000D03*
X243060000Y-209595000D03*
X242660000Y-209595000D03*
X242260000Y-209595000D03*
X241860000Y-209595000D03*
X241460000Y-209595000D03*
X241060000Y-209595000D03*
X240660000Y-209595000D03*
X240260000Y-209595000D03*
X239860000Y-209595000D03*
X239460000Y-209595000D03*
X239060000Y-209595000D03*
D52*
X238222500Y-210432500D03*
X238222500Y-210832500D03*
X238222500Y-211232500D03*
X238222500Y-211632500D03*
X238222500Y-212032500D03*
X238222500Y-212432500D03*
X238222500Y-212832500D03*
X238222500Y-213232500D03*
X238222500Y-213632500D03*
X238222500Y-214032500D03*
X238222500Y-214432500D03*
X238222500Y-214832500D03*
X238222500Y-215232500D03*
X238222500Y-215632500D03*
D53*
X239060000Y-216470000D03*
X239460000Y-216470000D03*
X239860000Y-216470000D03*
X240260000Y-216470000D03*
X240660000Y-216470000D03*
X241060000Y-216470000D03*
X241460000Y-216470000D03*
X241860000Y-216470000D03*
X242260000Y-216470000D03*
X242660000Y-216470000D03*
X243060000Y-216470000D03*
X243460000Y-216470000D03*
X243860000Y-216470000D03*
X244260000Y-216470000D03*
%TD*%
D22*
%TO.C,C22*%
X221260000Y-202905000D03*
X221260000Y-201355000D03*
%TD*%
D10*
%TO.C,D95*%
X352825000Y-237318582D03*
X352825000Y-238818582D03*
D11*
X347725000Y-238818582D03*
D10*
X347725000Y-237318582D03*
%TD*%
D54*
%TO.C,U4*%
X214472500Y-213200000D03*
X214472500Y-214800000D03*
X216072500Y-213200000D03*
X216072500Y-214800000D03*
D55*
X211835000Y-211400000D03*
X211835000Y-211800000D03*
X211835000Y-212200000D03*
X211835000Y-212600000D03*
X211835000Y-213000000D03*
X211835000Y-213400000D03*
X211835000Y-213800000D03*
X211835000Y-214200000D03*
X211835000Y-214600000D03*
X211835000Y-215000000D03*
X211835000Y-215400000D03*
X211835000Y-215800000D03*
X211835000Y-216200000D03*
X211835000Y-216600000D03*
D56*
X212672500Y-217437500D03*
X213072500Y-217437500D03*
X213472500Y-217437500D03*
X213872500Y-217437500D03*
X214272500Y-217437500D03*
X214672500Y-217437500D03*
X215072500Y-217437500D03*
X215472500Y-217437500D03*
X215872500Y-217437500D03*
X216272500Y-217437500D03*
X216672500Y-217437500D03*
X217072500Y-217437500D03*
X217472500Y-217437500D03*
X217872500Y-217437500D03*
D55*
X218710000Y-216600000D03*
X218710000Y-216200000D03*
X218710000Y-215800000D03*
X218710000Y-215400000D03*
X218710000Y-215000000D03*
X218710000Y-214600000D03*
X218710000Y-214200000D03*
X218710000Y-213800000D03*
X218710000Y-213400000D03*
X218710000Y-213000000D03*
X218710000Y-212600000D03*
X218710000Y-212200000D03*
X218710000Y-211800000D03*
X218710000Y-211400000D03*
D56*
X217872500Y-210562500D03*
X217472500Y-210562500D03*
X217072500Y-210562500D03*
X216672500Y-210562500D03*
X216272500Y-210562500D03*
X215872500Y-210562500D03*
X215472500Y-210562500D03*
X215072500Y-210562500D03*
X214672500Y-210562500D03*
X214272500Y-210562500D03*
X213872500Y-210562500D03*
X213472500Y-210562500D03*
X213072500Y-210562500D03*
X212672500Y-210562500D03*
%TD*%
D12*
%TO.C,D60*%
X112747500Y-267460000D03*
X110647500Y-267460000D03*
%TD*%
D45*
%TO.C,IC1*%
X245640000Y-221170000D03*
X245640000Y-220670000D03*
X245640000Y-220170000D03*
X245640000Y-219670000D03*
X242840000Y-219670000D03*
X242840000Y-220170000D03*
X242840000Y-220670000D03*
X242840000Y-221170000D03*
D46*
X244240000Y-220420000D03*
%TD*%
D13*
%TO.C,D24*%
X264160000Y-265280000D03*
X266260000Y-265280000D03*
%TD*%
D20*
%TO.C,R13*%
X240690000Y-204325000D03*
X240690000Y-202675000D03*
%TD*%
D13*
%TO.C,D21*%
X354542500Y-250670000D03*
X356642500Y-250670000D03*
%TD*%
D18*
%TO.C,C13*%
X252340000Y-219220000D03*
X250790000Y-219220000D03*
%TD*%
D13*
%TO.C,D30*%
X372612500Y-267520000D03*
X374712500Y-267520000D03*
%TD*%
D14*
%TO.C,C16*%
X223280000Y-226565000D03*
X223280000Y-228115000D03*
%TD*%
D20*
%TO.C,R18*%
X212070000Y-203965000D03*
X212070000Y-202315000D03*
%TD*%
D14*
%TO.C,C18*%
X220230000Y-226570000D03*
X220230000Y-228120000D03*
%TD*%
D16*
%TO.C,R22*%
X223055000Y-214700000D03*
X221405000Y-214700000D03*
%TD*%
%TO.C,R15*%
X255385000Y-200810000D03*
X253735000Y-200810000D03*
%TD*%
D13*
%TO.C,D2*%
X282140000Y-211800000D03*
X284240000Y-211800000D03*
%TD*%
D29*
%TO.C,FB2*%
X221350000Y-195152500D03*
X221350000Y-196727500D03*
%TD*%
D12*
%TO.C,D43*%
X203167500Y-213830000D03*
X201067500Y-213830000D03*
%TD*%
D26*
%TO.C,U6*%
X237640000Y-205327500D03*
D27*
X237715000Y-204790000D03*
D26*
X237640000Y-204252500D03*
X235940000Y-204252500D03*
D27*
X235865000Y-204790000D03*
D26*
X235940000Y-205327500D03*
%TD*%
D13*
%TO.C,D27*%
X318490000Y-262790000D03*
X320590000Y-262790000D03*
%TD*%
%TO.C,D16*%
X263972500Y-248170000D03*
X266072500Y-248170000D03*
%TD*%
%TO.C,D15*%
X245982500Y-238800000D03*
X248082500Y-238800000D03*
%TD*%
D10*
%TO.C,D86*%
X298550000Y-230218582D03*
X298550000Y-231718582D03*
D11*
X293450000Y-231718582D03*
D10*
X293450000Y-230218582D03*
%TD*%
D14*
%TO.C,C8*%
X238420000Y-219505000D03*
X238420000Y-221055000D03*
%TD*%
D10*
%TO.C,D130*%
X352825000Y-271518582D03*
X352825000Y-273018582D03*
D11*
X347725000Y-273018582D03*
D10*
X347725000Y-271518582D03*
%TD*%
D57*
%TO.C,K68*%
X102930000Y-283169000D03*
X114930000Y-280969000D03*
%TD*%
%TO.C,K46*%
X121030000Y-231894000D03*
X133030000Y-229694000D03*
%TD*%
%TO.C,K62*%
X139130000Y-261362582D03*
X151130000Y-259162582D03*
%TD*%
%TO.C,K6*%
X346775000Y-214893582D03*
X358775000Y-212693582D03*
%TD*%
%TO.C,K47*%
X139130000Y-227194000D03*
X151130000Y-224994000D03*
%TD*%
%TO.C,K38*%
X102930000Y-214794000D03*
X114930000Y-212594000D03*
%TD*%
%TO.C,K64*%
X175330000Y-261362582D03*
X187330000Y-259162582D03*
%TD*%
%TO.C,K49*%
X175330000Y-227169000D03*
X187330000Y-224969000D03*
%TD*%
D58*
%TO.C,K72*%
X214920000Y-287450000D03*
X219014745Y-275957695D03*
%TD*%
D57*
%TO.C,K55*%
X157230000Y-241894000D03*
X169230000Y-239694000D03*
%TD*%
%TO.C,K66*%
X211505000Y-254412582D03*
X223505000Y-252212582D03*
%TD*%
%TO.C,K26*%
X292500000Y-259043582D03*
X304500000Y-256843582D03*
%TD*%
%TO.C,K17*%
X274400000Y-244318582D03*
X286400000Y-242118582D03*
%TD*%
%TO.C,K41*%
X157230000Y-207694000D03*
X169230000Y-205494000D03*
%TD*%
%TO.C,K57*%
X193405000Y-246644000D03*
X205405000Y-244444000D03*
%TD*%
D59*
%TO.C,K71*%
X184492172Y-282639541D03*
X196652684Y-283620333D03*
%TD*%
D57*
%TO.C,K10*%
X292500000Y-224868582D03*
X304500000Y-222668582D03*
%TD*%
%TO.C,K60*%
X102930000Y-266094000D03*
X114930000Y-263894000D03*
%TD*%
%TO.C,K52*%
X102930000Y-248994000D03*
X114930000Y-246794000D03*
%TD*%
%TO.C,K9*%
X274400000Y-227218582D03*
X286400000Y-225018582D03*
%TD*%
%TO.C,K13*%
X346775000Y-231993582D03*
X358775000Y-229793582D03*
%TD*%
%TO.C,K23*%
X238225000Y-254468582D03*
X250225000Y-252268582D03*
%TD*%
%TO.C,K44*%
X84830000Y-231894000D03*
X96830000Y-229694000D03*
%TD*%
%TO.C,K48*%
X157230000Y-224794000D03*
X169230000Y-222594000D03*
%TD*%
%TO.C,K67*%
X84830000Y-283169000D03*
X96830000Y-280969000D03*
%TD*%
%TO.C,K34*%
X328675000Y-283268582D03*
X340675000Y-281068582D03*
%TD*%
%TO.C,K65*%
X193416577Y-263737582D03*
X205416577Y-261537582D03*
%TD*%
%TO.C,K69*%
X121030000Y-283169000D03*
X133030000Y-280969000D03*
%TD*%
%TO.C,K25*%
X274400000Y-261418582D03*
X286400000Y-259218582D03*
%TD*%
%TO.C,K45*%
X102930000Y-231894000D03*
X114930000Y-229694000D03*
%TD*%
%TO.C,K5*%
X328675000Y-214893582D03*
X340675000Y-212693582D03*
%TD*%
D60*
%TO.C,K32*%
X265459766Y-284496499D03*
X276481474Y-279265633D03*
%TD*%
D57*
%TO.C,K58*%
X211505000Y-237319000D03*
X223505000Y-235119000D03*
%TD*%
%TO.C,K3*%
X292500000Y-207768582D03*
X304500000Y-205568582D03*
%TD*%
%TO.C,K42*%
X175330000Y-210069000D03*
X187330000Y-207869000D03*
%TD*%
%TO.C,K40*%
X139130000Y-210094000D03*
X151130000Y-207894000D03*
%TD*%
%TO.C,K63*%
X157230000Y-258987582D03*
X169230000Y-256787582D03*
%TD*%
%TO.C,K19*%
X310600000Y-244318582D03*
X322600000Y-242118582D03*
%TD*%
%TO.C,K11*%
X310600000Y-227218582D03*
X322600000Y-225018582D03*
%TD*%
%TO.C,K15*%
X238225000Y-237368582D03*
X250225000Y-235168582D03*
%TD*%
%TO.C,K35*%
X346775000Y-283268582D03*
X358775000Y-281068582D03*
%TD*%
%TO.C,K28*%
X328675000Y-266168582D03*
X340675000Y-263968582D03*
%TD*%
%TO.C,K12*%
X328675000Y-231993582D03*
X340675000Y-229793582D03*
%TD*%
%TO.C,K30*%
X364875000Y-266168582D03*
X376875000Y-263968582D03*
%TD*%
%TO.C,K24*%
X256300000Y-263793582D03*
X268300000Y-261593582D03*
%TD*%
%TO.C,K37*%
X84830000Y-214794000D03*
X96830000Y-212594000D03*
%TD*%
%TO.C,K22*%
X364875000Y-249068582D03*
X376875000Y-246868582D03*
%TD*%
%TO.C,K1*%
X256300000Y-212493582D03*
X268300000Y-210293582D03*
%TD*%
%TO.C,K36*%
X364875000Y-283268582D03*
X376875000Y-281068582D03*
%TD*%
%TO.C,K8*%
X256300000Y-229593582D03*
X268300000Y-227393582D03*
%TD*%
%TO.C,K27*%
X310600000Y-261418582D03*
X322600000Y-259218582D03*
%TD*%
%TO.C,K61*%
X121030000Y-266094000D03*
X133030000Y-263894000D03*
%TD*%
%TO.C,K54*%
X139130000Y-244269000D03*
X151130000Y-242069000D03*
%TD*%
%TO.C,K39*%
X121030000Y-214794000D03*
X133030000Y-212594000D03*
%TD*%
%TO.C,K33*%
X284787592Y-281045077D03*
X296787592Y-278845077D03*
%TD*%
%TO.C,K50*%
X193430000Y-229569000D03*
X205430000Y-227369000D03*
%TD*%
%TO.C,K70*%
X164916577Y-280987582D03*
X176916577Y-278787582D03*
%TD*%
D61*
%TO.C,K31*%
X238091440Y-281513988D03*
X245996695Y-290806293D03*
%TD*%
D57*
%TO.C,K53*%
X121030000Y-248994000D03*
X133030000Y-246794000D03*
%TD*%
%TO.C,K14*%
X364875000Y-231993582D03*
X376875000Y-229793582D03*
%TD*%
%TO.C,K2*%
X274400000Y-210118582D03*
X286400000Y-207918582D03*
%TD*%
%TO.C,K56*%
X175330000Y-244269000D03*
X187330000Y-242069000D03*
%TD*%
%TO.C,K18*%
X292500000Y-241968582D03*
X304500000Y-239768582D03*
%TD*%
%TO.C,K16*%
X256300000Y-246693582D03*
X268300000Y-244493582D03*
%TD*%
%TO.C,K43*%
X193430000Y-212494000D03*
X205430000Y-210294000D03*
%TD*%
%TO.C,K4*%
X310575000Y-210118582D03*
X322575000Y-207918582D03*
%TD*%
%TO.C,K21*%
X346775000Y-249068582D03*
X358775000Y-246868582D03*
%TD*%
%TO.C,K59*%
X84830000Y-266094000D03*
X96830000Y-263894000D03*
%TD*%
%TO.C,K20*%
X328675000Y-249068582D03*
X340675000Y-246868582D03*
%TD*%
%TO.C,K51*%
X84830000Y-248994000D03*
X96830000Y-246794000D03*
%TD*%
%TO.C,K7*%
X364875000Y-214893582D03*
X376875000Y-212693582D03*
%TD*%
%TO.C,K29*%
X346775000Y-266168582D03*
X358775000Y-263968582D03*
%TD*%
M02*
