M48
; DRILL file {KiCad 7.0.8} date Fri Aug 29 19:51:43 2025
; FORMAT={-:-/ absolute / inch / decimal}
; #@! TF.CreationDate,2025-08-29T19:51:43-04:00
; #@! TF.GenerationSoftware,Kicad,Pcbnew,7.0.8
; #@! TF.FileFunction,Plated,1,2,PTH
FMAT,2
INCH
; #@! TA.AperFunction,Plated,PTH,ViaDrill
T1C0.0157
; #@! TA.AperFunction,Plated,PTH,ComponentDrill
T2C0.0236
; #@! TA.AperFunction,Plated,PTH,ComponentDrill
T3C0.0394
%
G90
G05
T1
X3.3398Y-11.0193
X3.3406Y-10.3472
X3.3409Y-8.3626
X3.3409Y-9.0252
X3.3409Y-9.6776
X4.052Y-8.3634
X4.052Y-9.0272
X4.052Y-9.7031
X4.0524Y-10.3622
X4.0524Y-11.0366
X4.7646Y-8.3626
X4.7646Y-9.0425
X4.7646Y-9.7055
X4.7646Y-10.3839
X4.7646Y-11.0394
X5.4776Y-8.1665
X5.4776Y-8.8567
X5.4776Y-9.5142
X5.4776Y-10.1835
X5.8295Y-10.7169
X6.102Y-10.5307
X6.1898Y-8.7583
X6.1898Y-9.4193
X6.1898Y-10.1071
X6.1902Y-8.0846
X6.4929Y-10.9469
X6.9024Y-8.1894
X6.9024Y-8.8531
X6.9024Y-9.5126
X6.9024Y-10.2008
X7.2961Y-11.0146
X7.6146Y-8.2795
X7.6146Y-8.9445
X7.6146Y-9.6331
X7.6146Y-10.2902
X7.8583Y-8.3508
X7.874Y-8.0287
X7.9406Y-8.55
X7.9965Y-9.3961
X7.9984Y-8.0287
X8.0122Y-8.5469
X8.0484Y-9.087
X8.0575Y-8.4197
X8.0744Y-9.713
X8.0835Y-8.4553
X8.1173Y-10.6689
X8.1181Y-10.4358
X8.1229Y-8.456
X8.1617Y-8.7051
X8.1617Y-8.5453
X8.1617Y-8.5846
X8.1617Y-8.7444
X8.1618Y-8.6657
X8.1622Y-8.4572
X8.2031Y-7.915
X8.2319Y-8.711
X8.2654Y-8.3291
X8.2673Y-10.2744
X8.2815Y-8.7102
X8.3083Y-10.6992
X8.3181Y-7.7331
X8.3398Y-10.2768
X8.3409Y-8.0921
X8.3484Y-8.7858
X8.3539Y-10.1402
X8.3685Y-9.4472
X8.3961Y-8.1043
X8.4504Y-8.0909
X8.4941Y-10.6614
X8.511Y-8.6084
X8.5197Y-8.1976
X8.5539Y-7.9976
X8.5618Y-8.1587
X8.576Y-7.9307
X8.626Y-8.05
X8.628Y-8.2382
X8.6291Y-10.578
X8.6669Y-7.7469
X8.6669Y-8.3665
X8.6669Y-8.5228
X8.6894Y-8.0866
X8.7295Y-10.9157
X8.75Y-8.337
X8.7657Y-7.9031
X8.7921Y-8.7874
X8.8441Y-8.8425
X9.1453Y-7.9055
X9.1594Y-8.1996
X9.1759Y-8.4024
X9.1819Y-8.3606
X9.2157Y-8.2429
X9.2276Y-7.7378
X9.2374Y-8.1858
X9.2713Y-7.6634
X9.2787Y-7.9906
X9.3059Y-7.8551
X9.3122Y-8.2472
X9.3169Y-8.4201
X9.339Y-8.1953
X9.344Y-11.004
X9.3756Y-8.1594
X9.3789Y-9.24
X9.38Y-9.93
X9.4016Y-8.5705
X9.4146Y-8.1028
X9.4237Y-10.6464
X9.4366Y-8.6537
X9.4665Y-8.1856
X9.4709Y-8.7079
X9.4756Y-10.7902
X9.4764Y-8.6191
X9.5504Y-9.0035
X9.5783Y-10.6807
X9.5807Y-10.1449
X9.6024Y-7.9413
X9.6157Y-8.5992
X9.6378Y-9.4843
X9.7Y-10.1453
X9.7091Y-8.511
X9.7134Y-8.2793
X9.7571Y-7.7543
X9.8091Y-8.4087
X9.8402Y-8.7311
X9.884Y-8.972
X9.8976Y-7.9803
X9.976Y-7.9744
X10.0539Y-10.7906
X10.09Y-8.264
X10.09Y-8.946
X10.09Y-9.626
X10.09Y-10.3
X10.418Y-11.098
X10.8012Y-7.6811
X10.8012Y-8.189
X10.802Y-8.854
X10.802Y-9.538
X10.806Y-10.184
X11.212Y-10.976
X11.514Y-8.764
X11.5154Y-7.6479
X11.5154Y-8.0752
X11.518Y-9.444
X11.518Y-10.102
X11.9142Y-10.726
X11.9772Y-10.5677
X12.226Y-8.864
X12.2276Y-7.6469
X12.2276Y-8.1764
X12.228Y-9.534
X12.228Y-10.206
X12.9379Y-7.8802
X12.938Y-9.052
X12.938Y-10.394
X12.9382Y-8.3543
X12.94Y-9.728
X12.94Y-11.07
X13.652Y-9.05
X13.652Y-9.728
X13.652Y-10.4
X13.652Y-11.076
X13.6531Y-7.8756
X13.6531Y-8.3689
X14.366Y-9.026
X14.366Y-9.72
X14.366Y-10.398
X14.366Y-11.072
X14.3669Y-7.9128
X14.3669Y-8.3453
X14.6559Y-8.7894
X14.6878Y-10.1402
X14.8394Y-9.5976
X14.8445Y-8.2768
T2
G00X8.2553Y-7.6769
M15
G01X8.2553Y-7.6533
M16
G05
G00X8.2553Y-7.8513
M15
G01X8.2553Y-7.808
M16
G05
G00X8.5955Y-7.6769
M15
G01X8.5955Y-7.6533
M16
G05
G00X8.5955Y-7.8513
M15
G01X8.5955Y-7.808
M16
G05
G00X9.386Y-7.6781
M15
G01X9.386Y-7.6545
M16
G05
G00X9.386Y-7.8526
M15
G01X9.386Y-7.8093
M16
G05
G00X9.7262Y-7.6781
M15
G01X9.7262Y-7.6545
M16
G05
G00X9.7262Y-7.8526
M15
G01X9.7262Y-7.8093
M16
G05
T3
G00X8.442Y-10.2343
M15
G01X8.4223Y-10.2343
M16
G05
G00X8.5011Y-10.4035
M15
G01X8.4814Y-10.4035
M16
G05
G00X8.6586Y-10.4035
M15
G01X8.6389Y-10.4035
M16
G05
G00X8.7767Y-10.4035
M15
G01X8.757Y-10.4035
M16
G05
G00X9.2047Y-10.2343
M15
G01X9.2244Y-10.2343
M16
G05
G00X9.3228Y-10.2343
M15
G01X9.3425Y-10.2343
M16
G05
G00X9.4803Y-10.2343
M15
G01X9.5Y-10.2343
M16
G05
G00X9.5394Y-10.4035
M15
G01X9.5591Y-10.4035
M16
G05
T0
M30
